<svg xmlns="http://www.w3.org/2000/svg" width="157.7" height="40.76" viewBox="0 0 157.7 40.76"><defs><style>.cls-1{fill:#1b1464;}.cls-2{fill:#ab272d;}.cls-3{fill:#ed1c24;}.cls-4{fill:#144f91;}</style></defs><title>FGA-New</title><g id="Layer_2" data-name="Layer 2"><g id="Layer_1-2" data-name="Layer 1"><path class="cls-1" d="M33.77,13a2,2,0,0,1-1.89,2.09c-.94,0-1.51-.58-2.4-1.52-3.67-3.87-6.08-6.54-9.9-6.54H16.86c-1.94,0-2.62.78-2.62,2.46v8c0,1,.37,1.46,1.68,1.46h2.72c3,0,3.14-4,5.39-4,1.21,0,1.94.74,1.94,2.41,0,1.26-.16,2.78-.16,4s.16,2.88.16,4.14c0,1.67-.73,2.41-1.94,2.41-2.25,0-2.41-4.09-5.39-4.09H15.92c-1.31,0-1.68.42-1.68,1.47v7.43c0,3.77,3.67,2.83,3.67,5.19,0,.94-.69,1.83-2.31,1.83s-2.93-.16-6.75-.16-5.13.16-6.55.16c-1.62,0-2.3-.89-2.3-1.83,0-2.36,3-1.42,3-5.19V9C3,5.22,0,6.16,0,3.8,0,2.86.68,2,2.3,2c1.42,0,2.73.16,6.34.16H22.51C25.08,2.13,25.39.77,27,.77c1.31,0,2.2.78,3.09,2.77l2.31,5.24C33.25,10.76,33.77,11.71,33.77,13Z"/><path class="cls-1" d="M34.51,21.81C34.51,9.09,44,1,52.52,1c4.34,0,7.48,1.31,9,1.31,1.31,0,1.83-1.51,3.09-1.51s2,.83,2.72,2.93l1.89,5.7c.73,2.25,1.26,3.35,1.26,4.45a2,2,0,0,1-2,2.2c-1,0-1.57-.47-2.3-1.46-4-5.45-6.65-8.54-10.42-8.54-6.39,0-8.85,7.8-8.85,15.13s2.62,14.24,10.26,14.24c1.47,0,2.41-.73,2.41-1.78V27.83c0-3.77-3-2.83-3-5.18,0-.94.68-1.83,2.3-1.83H71.21c1.62,0,2.3.89,2.3,1.83,0,2.35-3,1.41-3,5.18v4.56C70.48,35.11,72,35,72,36.58c0,.94-.52,1.51-2,2a46.91,46.91,0,0,1-14.5,2.14C43.62,40.76,34.51,34.27,34.51,21.81Z"/><path class="cls-1" d="M115.4,38.2a1.62,1.62,0,0,1-1.83,1.57c-1.78,0-3.62-.16-7.23-.16s-5.86.16-7.69.16-2.73-.63-2.73-1.78c0-2.46,3.67-1.47,3.67-4.14A8,8,0,0,0,99,31.39l-.52-1.52c-.42-1.2-.79-1.83-2.25-1.83H86.92c-1.47,0-1.83.63-2.25,1.83l-.53,1.42a9.36,9.36,0,0,0-.73,2.56c0,2.67,3.82,1.68,3.82,4.14,0,1.15-1,1.78-2.72,1.78s-3.45-.16-5-.16-2.73.16-4.51.16A1.62,1.62,0,0,1,73.2,38.2c0-2.51,3.14-1.68,4.5-5.29L85.35,12.7c.94-2.41,2-5.39,2.62-7.43,1-3,2.14-3.56,6.59-3.56s5.34.63,6.34,3.61c.68,2,1.73,5,2.67,7.38l7.64,20.21C112.52,36.37,115.4,35.79,115.4,38.2Zm-20-16.6L91.63,11.29,87.76,21.6c-.27.68-.32,1.47.94,1.47h5.86C95.87,23.07,95.71,22.28,95.45,21.6Z"/><path class="cls-2" d="M157.7,15.44s-6-4.7-11-3.1-7.2,8.9-7.2,8.9h0l18.21-5.8Z"/><path class="cls-3" d="M150.5,24.33c5-1.6,7.19-8.85,7.2-8.89l-18.21,5.8S145.49,25.93,150.5,24.33Z"/><path class="cls-1" d="M136.62,19.11s6.31-4.26,6.33-9.54S136.69,0,136.69,0h0l-.07,19.11Z"/><path class="cls-4" d="M130.36,9.53c0,5.27,6.23,9.55,6.26,9.58L136.69,0S130.38,4.27,130.36,9.53Z"/><path class="cls-1" d="M133.79,21.19s-2-7.34-7-9S115.7,15,115.7,15h0l18.09,6.15Z"/><path class="cls-4" d="M122.72,24.07c5,1.69,11-2.86,11.07-2.88L115.7,15S117.74,22.38,122.72,24.07Z"/><path class="cls-1" d="M134.87,24.57s-7.6-.31-10.75,3.93-.63,11.42-.63,11.42h0l11.38-15.35Z"/><path class="cls-4" d="M134.23,36c3.14-4.23.65-11.39.64-11.42L123.49,39.92S131.1,40.22,134.23,36Z"/><path class="cls-1" d="M138.39,24.56s-2.62,7.15.45,11.43,10.68,4.1,10.68,4.1h0L138.39,24.56Z"/><path class="cls-4" d="M149.07,28.66c-3.07-4.27-10.64-4.1-10.68-4.1l11.13,15.53S152.14,32.94,149.07,28.66Z"/></g></g></svg>