<svg xmlns="http://www.w3.org/2000/svg" width="437.62" height="242.55" viewBox="0 0 437.62 242.55"><defs><style>.cls-1{fill:#1b1464;}.cls-2{font-size:20px;fill:#fff;font-family:NewSpirit-Bold, New Spirit;font-weight:700;}.cls-3{letter-spacing:0em;}.cls-4{letter-spacing:-0.02em;}.cls-5{letter-spacing:-0.05em;}.cls-6{letter-spacing:-0.01em;}.cls-7{letter-spacing:-0.02em;}.cls-8{letter-spacing:0em;}.cls-9{letter-spacing:-0.01em;}.cls-10{letter-spacing:-0.01em;}.cls-11{letter-spacing:-0.03em;}.cls-12{letter-spacing:-0.04em;}.cls-13{letter-spacing:-0.03em;}.cls-14{fill:#c1272d;}.cls-15{letter-spacing:0.01em;}.cls-16{letter-spacing:-0.03em;}.cls-17{letter-spacing:-0.03em;}.cls-18{fill:#144f91;}.cls-19{letter-spacing:-0.02em;}.cls-20{letter-spacing:0em;}.cls-21{letter-spacing:-0.01em;}.cls-22{letter-spacing:-0.02em;}.cls-23{letter-spacing:0em;}.cls-24{letter-spacing:-0.01em;}.cls-25{letter-spacing:0em;}.cls-26{letter-spacing:-0.13em;}</style></defs><title>FGA-Research Quotes</title><g id="Layer_2" data-name="Layer 2"><g id="Layer_1-2" data-name="Layer 1"><path class="cls-1" d="M0,28A27.08,27.08,0,0,1,26.87.87L410.28,0a27.08,27.08,0,0,1,27.13,26.87l.11-.15a27.07,27.07,0,0,1-26.87,27.12l-163,.78v.09H.05V39.32Z"/><text class="cls-2" transform="matrix(1, 0, 0, 1, 14.7, 33.75)">“I <tspan class="cls-3" x="22.94" y="0">r</tspan><tspan x="34.1" y="0">eall</tspan><tspan class="cls-4" x="72.84" y="0">y</tspan><tspan x="85.22" y="0" xml:space="preserve"> do</tspan><tspan class="cls-5" x="117.74" y="0">n</tspan><tspan x="130.78" y="0">’t </tspan><tspan class="cls-6" x="149.94" y="0">g</tspan><tspan x="162.62" y="0">et</tspan><tspan class="cls-7" x="183.72" y="0"> </tspan><tspan x="188.1" y="0">what t</tspan><tspan class="cls-8" x="257.66" y="0">h</tspan><tspan x="271.44" y="0">e </tspan><tspan class="cls-9" x="288.26" y="0">F</tspan><tspan class="cls-10" x="301.56" y="0">G</tspan><tspan class="cls-11" x="317.12" y="0">A</tspan><tspan x="332.24" y="0" xml:space="preserve"> doe</tspan><tspan class="cls-12" x="376.77" y="0">s</tspan><tspan class="cls-13" x="387.83" y="0">”</tspan></text><path class="cls-1" d="M437.62,213.12A27.08,27.08,0,0,0,410.75,186l-154.9-.87A27.08,27.08,0,0,0,228.72,212l-.11-.15A27.08,27.08,0,0,0,255.48,239l170.35.77v.09h11.74V224.45Z"/><text class="cls-2" transform="matrix(1, 0, 0, 1, 246.96, 218.88)">“Booooring<tspan class="cls-13" x="125.48" y="0">”</tspan></text><path class="cls-14" d="M228.23,94.75A27.07,27.07,0,0,1,255.1,67.62l154.38-.87a27.08,27.08,0,0,1,27.13,26.87l.11,46.68a27.08,27.08,0,0,1-26.87,27.13l-135.23.78-22.49.09H228.28V106.07Z"/><text class="cls-2" transform="matrix(1, 0, 0, 1, 242.93, 100.48)"><tspan class="cls-15">“W</tspan><tspan x="34" y="0">hat does this </tspan><tspan x="0" y="24">h</tspan><tspan class="cls-16" x="13.86" y="24">a</tspan><tspan class="cls-17" x="26.06" y="24">v</tspan><tspan x="38.3" y="24">e </tspan><tspan class="cls-6" x="55.12" y="24">t</tspan><tspan x="64" y="24">o do</tspan><tspan class="cls-7" x="110.08" y="24"> </tspan><tspan x="114.46" y="24">with </tspan><tspan class="cls-8" x="0" y="48">m</tspan><tspan class="cls-12" x="20.6" y="48">e</tspan><tspan x="31.82" y="48">?</tspan><tspan class="cls-13" x="42.26" y="48">”</tspan></text><path class="cls-18" d="M212.6,94.72a27.08,27.08,0,0,0-26.87-27.13L27.24,66.72A27.08,27.08,0,0,0,.11,93.59L0,211.19a27.08,27.08,0,0,0,26.87,27.13l139.34.77v.09h46.34v-76Z"/><text class="cls-2" transform="matrix(1, 0, 0, 1, 14.82, 101.57)">“I <tspan class="cls-3" x="22.94" y="0">r</tspan><tspan x="34.1" y="0">eall</tspan><tspan class="cls-4" x="72.84" y="0">y</tspan><tspan x="85.22" y="0" xml:space="preserve"> do</tspan><tspan class="cls-5" x="117.74" y="0">n</tspan><tspan x="130.78" y="0">’t </tspan><tspan class="cls-19" x="0" y="24">w</tspan><tspan class="cls-20" x="19.54" y="24">ant </tspan><tspan class="cls-21" x="60.4" y="24">t</tspan><tspan x="69.28" y="24">o </tspan><tspan class="cls-3" x="87.64" y="24">r</tspan><tspan x="98.8" y="24">ead all </tspan><tspan x="0" y="48">this</tspan><tspan class="cls-22" x="41.94" y="48">.</tspan><tspan x="46.96" y="48" xml:space="preserve"> I</tspan><tspan class="cls-7" x="59.64" y="48"> </tspan><tspan x="64.02" y="48">wish t</tspan><tspan class="cls-8" x="130.62" y="48">h</tspan><tspan x="144.4" y="48">e</tspan><tspan class="cls-3" x="156.42" y="48">r</tspan><tspan x="167.58" y="48">e </tspan><tspan class="cls-22" x="0" y="72">w</tspan><tspan x="19.42" y="72">e</tspan><tspan class="cls-3" x="31.44" y="72">r</tspan><tspan x="42.6" y="72">e </tspan><tspan class="cls-23" x="59.42" y="72">m</tspan><tspan x="80.02" y="72">o</tspan><tspan class="cls-24" x="93.58" y="72">r</tspan><tspan x="104.74" y="72">e </tspan><tspan x="0" y="96">pictu</tspan><tspan class="cls-3" x="56.32" y="96">r</tspan><tspan x="67.48" y="96">es o</tspan><tspan class="cls-22" x="109.72" y="96">r</tspan><tspan class="cls-25" x="120.54" y="96"> </tspan><tspan x="0" y="120">videos ins</tspan><tspan class="cls-6" x="109.38" y="120">t</tspan><tspan x="118.26" y="120">ead</tspan><tspan class="cls-26" x="157.32" y="120">.</tspan><tspan class="cls-13" x="160.18" y="120">”</tspan></text></g></g></svg>