<svg xmlns="http://www.w3.org/2000/svg" xmlns:xlink="http://www.w3.org/1999/xlink" width="158.9" height="158.89" viewBox="0 0 158.9 158.89"><defs><style>.cls-1,.cls-2,.cls-9{fill:none;}.cls-2{stroke:#c1272d;stroke-width:7px;}.cls-3,.cls-5,.cls-6,.cls-7{fill:#144f91;}.cls-4{fill:#fff;}.cls-5,.cls-9{stroke:#144f91;stroke-miterlimit:10;}.cls-5{stroke-width:0.5px;}.cls-6,.cls-7{font-size:11px;}.cls-6{font-family:Baskerville-Bold, Baskerville;font-weight:700;}.cls-7{font-family:Baskerville, Baskerville;}.cls-8{fill:url(#_6_lpi_50_);}.cls-10{fill:url(#Gold_Dust);}.cls-11{fill:url(#Gold_Dust-2);}.cls-12{fill:url(#Gold_Dust-3);}.cls-13{fill:url(#Gold_Dust-4);}.cls-14{fill:url(#Gold_Dust-5);}.cls-15{fill:url(#Gold_Dust-6);}.cls-16{fill:url(#Gold_Dust-7);}.cls-17{fill:url(#Gold_Dust-8);}.cls-18{fill:url(#Gold_Dust-9);}.cls-19{fill:url(#Gold_Dust-10);}.cls-20{fill:url(#Gold_Dust-11);}.cls-21{fill:url(#Gold_Dust-12);}.cls-22{fill:url(#Gold_Dust-13);}.cls-23{fill:url(#Gold_Dust-14);}.cls-24{fill:url(#Gold_Dust-15);}.cls-25{fill:url(#Gold_Dust-16);}.cls-26{fill:url(#Gold_Dust-17);}.cls-27{fill:url(#Gold_Dust-18);}.cls-28{fill:url(#Gold_Dust-19);}.cls-29{fill:url(#Gold_Dust-20);}.cls-30{fill:url(#Gold_Dust-21);}.cls-31{fill:url(#Gold_Dust-22);}.cls-32{fill:url(#Gold_Dust-23);}.cls-33{fill:url(#Gold_Dust-24);}.cls-34{fill:url(#Gold_Dust-25);}.cls-35{fill:url(#Gold_Dust-26);}.cls-36{fill:url(#Gold_Dust-27);}.cls-37{fill:url(#Gold_Dust-28);}.cls-38{fill:url(#Gold_Dust-29);}.cls-39{fill:url(#Gold_Dust-30);}.cls-40{fill:url(#Gold_Dust-31);}.cls-41{fill:url(#Gold_Dust-32);}.cls-42{fill:url(#Gold_Dust-33);}.cls-43{fill:url(#Gold_Dust-34);}.cls-44{fill:url(#Gold_Dust-35);}.cls-45{fill:url(#Gold_Dust-36);}.cls-46{fill:url(#Gold_Dust-37);}.cls-47{fill:url(#Gold_Dust-38);}.cls-48{fill:url(#Gold_Dust-39);}.cls-49{fill:url(#Gold_Dust-40);}</style><pattern id="_6_lpi_50_" data-name="6 lpi 50%" width="72" height="72" patternTransform="translate(45.35 9.3) scale(1.06)" patternUnits="userSpaceOnUse" viewBox="0 0 72 72"><rect class="cls-1" width="72" height="72"/><line class="cls-2" x1="66" y1="144.25" x2="66" y2="71.75"/><line class="cls-2" x1="42" y1="144.25" x2="42" y2="71.75"/><line class="cls-2" x1="18" y1="144.25" x2="18" y2="71.75"/><line class="cls-2" x1="54" y1="144.25" x2="54" y2="71.75"/><line class="cls-2" x1="30" y1="144.25" x2="30" y2="71.75"/><line class="cls-2" x1="6" y1="144.25" x2="6" y2="71.75"/><line class="cls-2" x1="66" y1="72.25" x2="66" y2="-0.25"/><line class="cls-2" x1="42" y1="72.25" x2="42" y2="-0.25"/><line class="cls-2" x1="18" y1="72.25" x2="18" y2="-0.25"/><line class="cls-2" x1="54" y1="72.25" x2="54" y2="-0.25"/><line class="cls-2" x1="30" y1="72.25" x2="30" y2="-0.25"/><line class="cls-2" x1="6" y1="72.25" x2="6" y2="-0.25"/><line class="cls-2" x1="66" y1="0.25" x2="66" y2="-72.25"/><line class="cls-2" x1="42" y1="0.25" x2="42" y2="-72.25"/><line class="cls-2" x1="18" y1="0.25" x2="18" y2="-72.25"/><line class="cls-2" x1="54" y1="0.25" x2="54" y2="-72.25"/><line class="cls-2" x1="30" y1="0.25" x2="30" y2="-72.25"/><line class="cls-2" x1="6" y1="0.25" x2="6" y2="-72.25"/></pattern><linearGradient id="Gold_Dust" x1="92.83" y1="89.76" x2="99.06" y2="89.76" gradientUnits="userSpaceOnUse"><stop offset="0" stop-color="#ff7300"/><stop offset="0.18" stop-color="#f97c01"/><stop offset="0.47" stop-color="#ea9602"/><stop offset="0.55" stop-color="#e59e03"/><stop offset="0.87" stop-color="#e5c500"/><stop offset="0.99" stop-color="#bf6f00"/></linearGradient><linearGradient id="Gold_Dust-2" x1="93.88" y1="88.25" x2="100.1" y2="88.25" xlink:href="#Gold_Dust"/><linearGradient id="Gold_Dust-3" x1="80.13" y1="89.26" x2="94.57" y2="89.26" xlink:href="#Gold_Dust"/><linearGradient id="Gold_Dust-4" x1="89.35" y1="94.82" x2="95.82" y2="94.82" xlink:href="#Gold_Dust"/><linearGradient id="Gold_Dust-5" x1="92.36" y1="85.34" x2="103.53" y2="85.34" xlink:href="#Gold_Dust"/><linearGradient id="Gold_Dust-6" x1="82.82" y1="100.03" x2="87.97" y2="100.03" xlink:href="#Gold_Dust"/><linearGradient id="Gold_Dust-7" x1="80.94" y1="101.04" x2="85.61" y2="101.04" xlink:href="#Gold_Dust"/><linearGradient id="Gold_Dust-8" x1="90.6" y1="93.15" x2="97.13" y2="93.15" xlink:href="#Gold_Dust"/><linearGradient id="Gold_Dust-9" x1="79.96" y1="92.67" x2="93.58" y2="92.67" xlink:href="#Gold_Dust"/><linearGradient id="Gold_Dust-10" x1="91.85" y1="91.56" x2="98.38" y2="91.56" xlink:href="#Gold_Dust"/><linearGradient id="Gold_Dust-11" x1="79.67" y1="101.99" x2="83.04" y2="101.99" xlink:href="#Gold_Dust"/><linearGradient id="Gold_Dust-12" x1="98.79" y1="90.58" x2="115.27" y2="90.58" xlink:href="#Gold_Dust"/><linearGradient id="Gold_Dust-13" x1="97.47" y1="93.05" x2="113.54" y2="93.05" xlink:href="#Gold_Dust"/><linearGradient id="Gold_Dust-14" x1="101.53" y1="85.3" x2="117.91" y2="85.3" xlink:href="#Gold_Dust"/><linearGradient id="Gold_Dust-15" x1="96.08" y1="95.52" x2="110.62" y2="95.52" xlink:href="#Gold_Dust"/><linearGradient id="Gold_Dust-16" x1="99.83" y1="88.26" x2="116.73" y2="88.26" xlink:href="#Gold_Dust"/><linearGradient id="Gold_Dust-17" x1="93.65" y1="98.3" x2="107.09" y2="98.3" xlink:href="#Gold_Dust"/><linearGradient id="Gold_Dust-18" x1="84.83" y1="99" x2="90.05" y2="99" xlink:href="#Gold_Dust"/><linearGradient id="Gold_Dust-19" x1="86.43" y1="97.74" x2="92.34" y2="97.74" xlink:href="#Gold_Dust"/><linearGradient id="Gold_Dust-20" x1="88.03" y1="96.33" x2="94.14" y2="96.33" xlink:href="#Gold_Dust"/><linearGradient id="Gold_Dust-21" x1="59.84" y1="89.76" x2="66.07" y2="89.76" xlink:href="#Gold_Dust"/><linearGradient id="Gold_Dust-22" x1="58.8" y1="88.25" x2="65.02" y2="88.25" xlink:href="#Gold_Dust"/><linearGradient id="Gold_Dust-23" x1="64.33" y1="89.26" x2="78.77" y2="89.26" xlink:href="#Gold_Dust"/><linearGradient id="Gold_Dust-24" x1="63.08" y1="94.82" x2="69.55" y2="94.82" xlink:href="#Gold_Dust"/><linearGradient id="Gold_Dust-25" x1="55.37" y1="85.34" x2="66.54" y2="85.34" xlink:href="#Gold_Dust"/><linearGradient id="Gold_Dust-26" x1="70.93" y1="100.03" x2="76.07" y2="100.03" xlink:href="#Gold_Dust"/><linearGradient id="Gold_Dust-27" x1="73.29" y1="101.04" x2="77.96" y2="101.04" xlink:href="#Gold_Dust"/><linearGradient id="Gold_Dust-28" x1="61.77" y1="93.15" x2="68.3" y2="93.15" xlink:href="#Gold_Dust"/><linearGradient id="Gold_Dust-29" x1="65.3" y1="92.67" x2="78.93" y2="92.67" xlink:href="#Gold_Dust"/><linearGradient id="Gold_Dust-30" x1="60.51" y1="91.56" x2="67.04" y2="91.56" xlink:href="#Gold_Dust"/><linearGradient id="Gold_Dust-31" x1="75.86" y1="101.99" x2="79.23" y2="101.99" xlink:href="#Gold_Dust"/><linearGradient id="Gold_Dust-32" x1="43.63" y1="90.58" x2="60.11" y2="90.58" xlink:href="#Gold_Dust"/><linearGradient id="Gold_Dust-33" x1="45.36" y1="93.05" x2="61.43" y2="93.05" xlink:href="#Gold_Dust"/><linearGradient id="Gold_Dust-34" x1="40.99" y1="85.3" x2="57.37" y2="85.3" xlink:href="#Gold_Dust"/><linearGradient id="Gold_Dust-35" x1="48.28" y1="95.52" x2="62.82" y2="95.52" xlink:href="#Gold_Dust"/><linearGradient id="Gold_Dust-36" x1="42.17" y1="88.26" x2="59.06" y2="88.26" xlink:href="#Gold_Dust"/><linearGradient id="Gold_Dust-37" x1="51.81" y1="98.3" x2="65.25" y2="98.3" xlink:href="#Gold_Dust"/><linearGradient id="Gold_Dust-38" x1="68.85" y1="99" x2="74.07" y2="99" xlink:href="#Gold_Dust"/><linearGradient id="Gold_Dust-39" x1="66.55" y1="97.74" x2="72.47" y2="97.74" xlink:href="#Gold_Dust"/><linearGradient id="Gold_Dust-40" x1="64.76" y1="96.33" x2="70.87" y2="96.33" xlink:href="#Gold_Dust"/></defs><title>FGA-Old</title><g id="Layer_2" data-name="Layer 2"><g id="Layer_1-2" data-name="Layer 1"><circle class="cls-3" cx="79.45" cy="79.44" r="75.4"/><path class="cls-3" d="M149.48,113.18a78.28,78.28,0,0,0,7.69-33.74h-.52A77.66,77.66,0,0,1,149,113Z"/><path class="cls-3" d="M127.9,140.19a78,78,0,0,0,21.58-27L149,113a77.66,77.66,0,0,1-21.44,26.84Z"/><path class="cls-3" d="M96.74,155.21a76.65,76.65,0,0,0,31.16-15l-.32-.4A78.27,78.27,0,0,1,113,149a77.42,77.42,0,0,1-16.34,5.7Z"/><path class="cls-3" d="M62.16,155.21a77.63,77.63,0,0,0,34.58,0l-.12-.5a77.15,77.15,0,0,1-34.34,0Z"/><path class="cls-3" d="M31,140.19a76.65,76.65,0,0,0,31.16,15l.12-.5a76.35,76.35,0,0,1-31-14.92Z"/><path class="cls-3" d="M9.41,113.18a78.16,78.16,0,0,0,21.59,27l.32-.4A77.66,77.66,0,0,1,9.88,113Z"/><path class="cls-3" d="M1.73,79.44a78.27,78.27,0,0,0,7.68,33.74l.47-.23A77.66,77.66,0,0,1,2.25,79.44Z"/><path class="cls-3" d="M9.41,45.71A78.26,78.26,0,0,0,1.73,79.44h.52a77.64,77.64,0,0,1,7.63-33.5Z"/><path class="cls-3" d="M31,18.69a78.29,78.29,0,0,0-21.59,27l.47.23A77.57,77.57,0,0,1,31.32,19.1Z"/><path class="cls-3" d="M62.16,3.68A77.79,77.79,0,0,0,45.72,9.41,78.67,78.67,0,0,0,31,18.69l.32.41a76,76,0,0,1,31-14.92Z"/><path class="cls-3" d="M96.74,3.68a77.63,77.63,0,0,0-34.58,0l.12.5a77.15,77.15,0,0,1,34.34,0Z"/><path class="cls-3" d="M127.9,18.69a79,79,0,0,0-14.72-9.28A77.79,77.79,0,0,0,96.74,3.68l-.12.5A78,78,0,0,1,113,9.87a78.84,78.84,0,0,1,14.62,9.23Z"/><path class="cls-3" d="M149.48,45.71a78.15,78.15,0,0,0-21.58-27l-.32.41A77.57,77.57,0,0,1,149,45.94Z"/><path class="cls-3" d="M157.17,79.44a78.27,78.27,0,0,0-7.69-33.73l-.46.23a77.64,77.64,0,0,1,7.63,33.5Z"/><circle class="cls-4" cx="79.47" cy="79.14" r="58.89"/><path class="cls-3" d="M151,113.93a80.21,80.21,0,0,0,7.86-34.49h-.52a79.45,79.45,0,0,1-7.81,34.26Z"/><path class="cls-3" d="M129,141.55A80,80,0,0,0,151,113.93l-.47-.23a79.29,79.29,0,0,1-21.91,27.44Z"/><path class="cls-3" d="M97.12,156.9A80,80,0,0,0,113.93,151a80.85,80.85,0,0,0,15-9.49l-.32-.41A77.88,77.88,0,0,1,97,156.39Z"/><path class="cls-3" d="M61.78,156.9a79.54,79.54,0,0,0,35.34,0l-.12-.51a78.81,78.81,0,0,1-35.11,0Z"/><path class="cls-3" d="M29.92,141.55A80.85,80.85,0,0,0,45,151a80,80,0,0,0,16.81,5.86l.11-.51a77.92,77.92,0,0,1-31.65-15.25Z"/><path class="cls-3" d="M7.86,113.93a80,80,0,0,0,22.06,27.62l.32-.41A79.43,79.43,0,0,1,8.32,113.7Z"/><path class="cls-3" d="M0,79.44a79.92,79.92,0,0,0,7.86,34.49l.46-.23A79.44,79.44,0,0,1,.52,79.44Z"/><path class="cls-3" d="M7.86,45A79.91,79.91,0,0,0,0,79.44H.52a79.43,79.43,0,0,1,7.8-34.25Z"/><path class="cls-3" d="M29.92,17.34A80,80,0,0,0,7.86,45l.46.23A79.43,79.43,0,0,1,30.24,17.75Z"/><path class="cls-3" d="M61.78,2A80,80,0,0,0,45,7.85a80.85,80.85,0,0,0-15,9.49l.32.41a80.45,80.45,0,0,1,15-9.43A79.12,79.12,0,0,1,61.89,2.5Z"/><path class="cls-3" d="M97.12,2A79.54,79.54,0,0,0,61.78,2l.11.51A78.81,78.81,0,0,1,97,2.5Z"/><path class="cls-3" d="M129,17.34a80.85,80.85,0,0,0-15-9.49A80,80,0,0,0,97.12,2L97,2.5a79.2,79.2,0,0,1,16.71,5.82,80.45,80.45,0,0,1,15,9.43Z"/><path class="cls-3" d="M151,45A80,80,0,0,0,129,17.34l-.32.41a79.29,79.29,0,0,1,21.91,27.44Z"/><path class="cls-3" d="M158.9,79.44A80.2,80.2,0,0,0,151,45l-.47.23a79.44,79.44,0,0,1,7.81,34.25Z"/><path class="cls-4" d="M142.42,102.81h0a5.64,5.64,0,0,1,.65,1.26c.65,1.46,1.46,3.56,2.75,4.13l.23.1c.23-.48.43-1,.62-1.48a1,1,0,0,0-.61-1.45l-.19.48a.62.62,0,0,1,.35.3.59.59,0,0,1,0,.48l-.38,1c-1-.64-1.74-2.5-2.26-3.7-.14-.32-.26-.58-.36-.79l4.87,1.8a.59.59,0,0,1,.32.32.61.61,0,0,1,0,.48c-.4,1-.75,2-1.18,2.91l-1.3,2.87.47.22,1.31-2.88c.43-1,.78-2,1.18-2.94a1.1,1.1,0,0,0-.63-1.47l-5.63-2.05C142.54,102.5,142.48,102.66,142.42,102.81Z"/><path class="cls-4" d="M134.54,106c.62-1.39,1.28-2.76,1.81-4.19.17-.44.29-.74.5-.82a2.49,2.49,0,0,1,1.32.27c2,.73,2.12,1,3.08,3.09l.27.58a18.21,18.21,0,0,0,2,3.73l-7-3.17c.36-.8.75-1.59,1.05-2.41a.28.28,0,0,1,.18-.17.31.31,0,0,1,.25,0,3.17,3.17,0,0,1,1.74,2.18l.08.24-.9-.39-.2.43,1.6.7.2-.44h0a2.47,2.47,0,0,1-.29-.67,3.69,3.69,0,0,0-2.06-2.48.91.91,0,0,0-.65,0,.73.73,0,0,0-.43.41s-.26.72-.59,1.41l-.64,1.4,9.14,4.25.22-.48c-1.42-.68-2.12-2.22-3.26-4.71l-.26-.58c-1-2.09-1.21-2.54-3.39-3.34a2.67,2.67,0,0,0-1.7-.26c-.41.15-.56.53-.77,1.06-.52,1.41-1.18,2.77-1.79,4.15Z"/><path class="cls-4" d="M152.23,86.73a1,1,0,0,0,.81-.26,1.14,1.14,0,0,0,.39-.8c.2-2.07.24-4.15.28-6.23h-.52c0,2.07-.08,4.13-.27,6.19a.64.64,0,0,1-.22.43.52.52,0,0,1-.42.14l-5.18-.47.67-.56c1-.86,2.5-2.21,3.64-2.36,0,.34,0,.69-.06,1a.67.67,0,0,1-.18.44.63.63,0,0,1-.45.12l0,.52a1.12,1.12,0,0,0,.83-.25,1.09,1.09,0,0,0,.35-.8l.06-.8,0-.8h-.26a3.8,3.8,0,0,0-2.19.86,26.37,26.37,0,0,0-2.07,1.67,5.41,5.41,0,0,1-1.13.85h0l0,.48Z"/><path class="cls-4" d="M146.25,84.15l.5-.41c2.08-1.76,3.4-2.84,5-2.83v-.53l-10.08-.12c0,1,0,2-.1,3.06a.71.71,0,0,0,.21.56.94.94,0,0,0,.58.26,3.67,3.67,0,0,0,2.94-1.35c.19-.2.45-.47.55-.48h0v-.48l-1.74-.06v.47l1,0c0,.07-1.5,1.49-2.69,1.4a.32.32,0,0,1-.32-.33l0-.31c0-.19,0-.46,0-.75,0-.57,0-1.23,0-1.56l7.63.14a17.92,17.92,0,0,0-3.38,2.51l-.5.41c-1.76,1.46-2,1.64-4.11,1.45a2.44,2.44,0,0,1-1.31-.33c-.16-.16-.13-.48-.1-1,.16-1.49.13-3,.19-4.51h-.52c-.06,1.49,0,3-.18,4.47,0,.57-.08,1,.22,1.29a2.73,2.73,0,0,0,1.66.5C144.06,85.92,144.48,85.62,146.25,84.15Z"/><path class="cls-4" d="M146,88.2a6,6,0,0,1,.94,1.09c1,1.28,2.18,3.13,3.59,3.4l.25,0,.28-1.58a1,1,0,0,0-.91-1.28l-.07.52a.57.57,0,0,1,.41.21.59.59,0,0,1,.06.47l-.18,1c-1.11-.41-2.18-2-3-3.11-.22-.28-.39-.51-.54-.69L152,89a.63.63,0,0,1,.39.23.68.68,0,0,1,.12.48,75.14,75.14,0,0,1-2.8,12.29.67.67,0,0,1-.31.37.57.57,0,0,1-.46,0L144,100.76l.79-.39c1.2-.59,2.87-1.6,4.06-1.49l-.29,1a.61.61,0,0,1-.26.39.62.62,0,0,1-.46,0c-.05.16-.09.33-.15.5a1.1,1.1,0,0,0,.86-.06A1.12,1.12,0,0,0,149,100l.44-1.54-.25-.07c-1.39-.36-3.3.78-4.71,1.52-.26.13-.58.27-.85.38l-.45.19-.15.47,5.67,1.92a1.1,1.1,0,0,0,.85-.07,1.2,1.2,0,0,0,.58-.69s.27-.75.58-1.9l.55-2c.2-.72.36-1.5.54-2.27.39-1.55.64-3.12.85-4.29s.3-2,.3-2a1.15,1.15,0,0,0-1-1.31l-6-.73Z"/><path class="cls-4" d="M143.52,99l.56-.29c2.39-1.25,4-2,5.49-1.64l.12-.51-9.54-2.32-.26-.06,0,.22c-.19.92-.49,1.82-.73,2.73a.69.69,0,0,0,.09.59.89.89,0,0,0,.52.39,3.58,3.58,0,0,0,3.13-.66,2.13,2.13,0,0,1,.65-.34h0l.13-.47-1.69-.45-.12.46,1,.26-.22.13a3.13,3.13,0,0,1-2.71.63.34.34,0,0,1-.24-.39l.29-1c.15-.55.35-1.18.41-1.51l7.4,1.85a19.08,19.08,0,0,0-3.88,1.67l-.56.3c-2,1-2.37,1.13-4.35.48-.71-.23-1.08-.42-1.19-.61s0-.49.14-1a68.36,68.36,0,0,0,2-9c0-.48.09-.79.28-.91s.6-.14,1.34,0c2.07.27,2.32.52,3.72,2.32l.38.51a17,17,0,0,0,2.77,3.19l-7.48-1.53.47-2.59a.35.35,0,0,1,.14-.2.42.42,0,0,1,.25,0A3.15,3.15,0,0,1,143.93,91l.14.21-1-.17-.09.46,1.72.33.08-.48h0c-.1,0-.3-.35-.44-.58a3.53,3.53,0,0,0-2.54-2,.86.86,0,0,0-.63.13.73.73,0,0,0-.34.49s-.13.7-.25,1.39l-.17,1c0,.27-.1.44-.1.44l0,.22.26,0,9.6,2,.12-.52c-1.51-.33-2.64-1.69-4.24-3.86l-.38-.51c-1.44-1.82-1.79-2.21-4.08-2.49a2.54,2.54,0,0,0-1.72.13c-.36.23-.41.63-.48,1.2a64,64,0,0,1-2,8.87c-.17.54-.31.93-.09,1.29s.61.57,1.5.87C141,100.26,141.45,100.07,143.52,99Z"/><path class="cls-4" d="M126,127.79h0a5.63,5.63,0,0,1,0,1.43c0,1.62-.25,3.81.68,4.9l.17.2,1.21-1.05a1,1,0,0,0,.07-1.59l-.37.36a.64.64,0,0,1,.19.43.6.6,0,0,1-.24.41l-.78.69c-.6-1-.45-3-.43-4.32,0-.35,0-.63,0-.87l3.6,3.74a.56.56,0,0,1,.16.43.69.69,0,0,1-.2.44L129,134.06l-1.19,1c-.79.68-1.57,1.37-2.41,2l.33.4c.84-.63,1.63-1.33,2.43-2l1.19-1,1.15-1.09a1.13,1.13,0,0,0,.07-1.61l-4.19-4.28Z"/><path class="cls-4" d="M117.54,127.23c.61-.46,1.19-1,1.76-1.46s1.17-1,1.71-1.52c.35-.33.58-.55.8-.53s.55.27,1.07.81c1.45,1.51,1.48,1.84,1.46,4.14l0,.64a17.06,17.06,0,0,0,.17,4.21l-4.89-5.86,2-1.72a.27.27,0,0,1,.23-.08.35.35,0,0,1,.22.12,3.13,3.13,0,0,1,.61,2.7l0,.26-.65-.74-.36.3,1.14,1.33.37-.32h0a2,2,0,0,1,0-.73,3.57,3.57,0,0,0-.76-3.12.9.9,0,0,0-.58-.29.75.75,0,0,0-.56.18l-2.33,2,6.4,7.79.41-.34c-1-1.2-1-3-.9-5.65v-.64c0-2.32,0-2.84-1.62-4.49-.65-.67-1-.94-1.42-1s-.73.24-1.14.63-1.12,1-1.69,1.51-1.14,1-1.74,1.45Z"/><path class="cls-4" d="M141.86,117.6a1.1,1.1,0,0,0,.85.12,1.19,1.19,0,0,0,.7-.55c.51-.91,1.06-1.8,1.54-2.72l1.42-2.78-.47-.22-1.41,2.76c-.48.91-1,1.8-1.53,2.7a.63.63,0,0,1-.37.29.54.54,0,0,1-.45-.06l-4.45-2.68.84-.21c1.27-.34,3.19-.91,4.31-.54l-.52.9a.59.59,0,0,1-.35.32.66.66,0,0,1-.46-.08l-.26.45a1,1,0,0,0,1.52-.43l.4-.7c.2-.35.38-.71.38-.71l-.23-.12c-1.25-.65-3.4,0-4.94.42A5.53,5.53,0,0,1,137,114h0c-.08.14-.17.28-.26.42Z"/><path class="cls-4" d="M137.61,112.67l.62-.15c2.65-.67,4.3-1.08,5.71-.39l.24-.47-9-4.49c-.48.9-.9,1.83-1.43,2.7a.73.73,0,0,0,0,.6,1,1,0,0,0,.41.49,3.69,3.69,0,0,0,3.23.06,2.42,2.42,0,0,1,.71-.19h0l.22-.43-1.54-.81-.22.42.87.46c-.06,0-2,.68-3,.09a.33.33,0,0,1-.14-.43s.25-.42.52-.93l.71-1.39,6.81,3.45a18.38,18.38,0,0,0-4.14.78l-.62.16c-2.22.54-2.54.59-4.33-.49-.64-.38-1-.65-1-.86s.09-.49.33-.91c.78-1.29,1.43-2.64,2.12-4l-.47-.23c-.68,1.32-1.33,2.66-2.1,3.94-.28.49-.48.84-.35,1.25s.47.68,1.27,1.18C134.87,113.31,135.38,113.23,137.61,112.67Z"/><path class="cls-4" d="M135.61,116.21a6.08,6.08,0,0,1,.38,1.38c.28,1.56.6,3.78,1.74,4.63l.21.16.93-1.31a1,1,0,0,0-.26-1.55l-.3.43a.61.61,0,0,1,.28.37.62.62,0,0,1-.15.45l-.6.85c-.82-.85-1.1-2.8-1.36-4.1-.07-.35-.13-.63-.18-.86l4.34,2.85a.56.56,0,0,1,.25.38.65.65,0,0,1-.09.47,75.51,75.51,0,0,1-7.88,9.84.62.62,0,0,1-.44.2.54.54,0,0,1-.42-.16s-2.57-2.47-3.74-3.61h.87c.67,0,1.5-.05,2.29,0a4.19,4.19,0,0,1,2,.44l-.68.79a.53.53,0,0,1-.84,0l-.36.38a1,1,0,0,0,1.58-.08l1.05-1.21-.19-.17c-1.09-.93-3.28-.71-4.9-.69-.29,0-.65,0-.93,0l-.48,0-.34.35,4.28,4.2a1.09,1.09,0,0,0,.79.3,1.14,1.14,0,0,0,.81-.37s.56-.57,1.36-1.45,1.86-2.07,2.82-3.34l1.44-1.83,1.18-1.66c.35-.49.63-.89.84-1.17s.3-.46.3-.46a1.15,1.15,0,0,0-.3-1.59l-5-3.25Z"/><path class="cls-4" d="M128.65,124.89h.65c2.69-.1,4.45-.08,5.65.9l.34-.41-7.58-6.23-.2-.17-.15.18-1.85,2.14a.71.71,0,0,0-.19.56,1,1,0,0,0,.29.58,3.61,3.61,0,0,0,3.12.77,2.1,2.1,0,0,1,.73,0h0l.32-.36-1.32-1.14-.31.35.74.65-.25,0a3.12,3.12,0,0,1-2.71-.61.32.32,0,0,1,0-.45l1.72-2,5.86,4.89a17.06,17.06,0,0,0-4.21-.17l-.64,0c-2.3,0-2.62,0-4.13-1.46-.54-.52-.79-.85-.81-1.07s.2-.46.53-.81a62.82,62.82,0,0,0,5.74-7.17c.29-.39.44-.67.67-.7s.6.14,1.22.55c1.73,1.14,1.89,1.49,2.32,3.71l.12.62a19.08,19.08,0,0,0,1.11,4.08l-6.07-4.64c.56-.67,1-1.42,1.56-2.12a.24.24,0,0,1,.21-.12.35.35,0,0,1,.24.06,3.16,3.16,0,0,1,1.2,2.51l0,.26-.8-.58-.27.38,1.4,1,.28-.4h0a2,2,0,0,1-.15-.73A3.58,3.58,0,0,0,131.6,115a1,1,0,0,0-.63-.17.73.73,0,0,0-.52.3l-.82,1.15c-.2.3-.42.58-.59.79l-.27.34-.14.18.2.16,7.76,6,.33-.41a4.22,4.22,0,0,1-1.32-2,22,22,0,0,1-.81-3.31l-.12-.62c-.47-2.25-.65-2.77-2.58-4-.79-.51-1.24-.69-1.61-.64s-.62.41-.95.88a62.71,62.71,0,0,1-5.7,7.11c-.39.41-.67.71-.63,1.13s.3.78,1,1.44C125.82,124.88,126.34,124.91,128.65,124.89Z"/><path class="cls-4" d="M100.44,143.23v0a5.3,5.3,0,0,1-.57,1.32c-.74,1.4-1.88,3.32-1.52,4.71l.07.25,1.54-.44a1,1,0,0,0,.77-1.37l-.5.15a.62.62,0,0,1,0,.46.61.61,0,0,1-.39.26l-1,.29c-.11-1.19.9-2.87,1.5-4.06.16-.31.29-.57.39-.79l1.62,4.94a.55.55,0,0,1,0,.45.63.63,0,0,1-.37.31c-2,.62-4,1.21-6.06,1.65l.11.5c2.06-.44,4.09-1,6.11-1.65a1.16,1.16,0,0,0,.76-1.43l-1.92-5.69Z"/><path class="cls-4" d="M93.05,139c1.49-.3,3-.75,4.41-1.16.46-.14.76-.25,1-.13s.38.48.62,1.19c.64,2,.54,2.33-.49,4.35l-.3.56a18.64,18.64,0,0,0-1.68,3.88l-1.85-7.41c.86-.2,1.69-.47,2.54-.69a.29.29,0,0,1,.24,0,.36.36,0,0,1,.15.21,3.11,3.11,0,0,1-.63,2.7l-.13.22-.26-.95-.46.13.45,1.69.47-.14h0c0-.1.19-.42.34-.66a3.61,3.61,0,0,0,.67-3.13,1,1,0,0,0-.4-.52.73.73,0,0,0-.59-.09l-1.47.41c-.37.11-.74.21-1,.27l-.47.11,2.37,9.79.52-.11c-.35-1.49.39-3.09,1.65-5.49l.29-.56c1-2.06,1.22-2.57.49-4.76-.3-.88-.54-1.3-.86-1.49s-.75-.08-1.29.09c-1.45.41-2.89.84-4.37,1.15Z"/><path class="cls-4" d="M119.12,140.89a1.11,1.11,0,0,0,.71.47,1.22,1.22,0,0,0,.89-.17c1.71-1.18,3.41-2.39,5-3.7l-.32-.41c-1.6,1.31-3.29,2.5-5,3.68a.67.67,0,0,1-.48.09.59.59,0,0,1-.38-.25l-2.85-4.34.86.18c1.29.26,3.25.54,4.1,1.36l-.85.6a.56.56,0,0,1-.45.14.6.6,0,0,1-.37-.27l-.43.3a1.1,1.1,0,0,0,.71.49,1.07,1.07,0,0,0,.84-.24l1.31-.93-.16-.2c-.85-1.15-3.07-1.46-4.63-1.75a5.82,5.82,0,0,1-1.38-.36h0l-.41.26Z"/><path class="cls-4" d="M117.43,134.62l.62.12a21.85,21.85,0,0,1,3.31.82,4.14,4.14,0,0,1,2,1.31l.41-.33-6.19-7.95c-.79.65-1.62,1.23-2.45,1.82a.75.75,0,0,0-.3.52,1,1,0,0,0,.16.63,3.6,3.6,0,0,0,2.87,1.43,2.12,2.12,0,0,1,.72.14h0l.4-.28-1-1.4-.39.27.59.8c-.09,0-2.11-.25-2.77-1.23a.32.32,0,0,1,.05-.45l.87-.62c.47-.32,1-.72,1.25-.94l4.64,6.06a19.65,19.65,0,0,0-4.07-1.1l-.63-.12c-2.21-.43-2.56-.59-3.7-2.31-.41-.63-.58-1-.55-1.22s.31-.39.69-.67l1.84-1.31c.61-.44,1.18-.92,1.78-1.38l-.32-.41c-.59.46-1.17.94-1.77,1.37l-1.82,1.3c-.46.34-.82.53-.87,1s.13.82.64,1.6C114.66,134,115.18,134.16,117.43,134.62Z"/><path class="cls-4" d="M114.1,137a5.53,5.53,0,0,1-.28,1.39c-.4,1.54-1.06,3.7-.42,4.94l.13.23c.48-.24.94-.51,1.4-.78a1,1,0,0,0,.43-1.52l-.45.26a.52.52,0,0,1-.23.81l-.91.52c-.37-1.12.21-3,.54-4.31.09-.34.16-.61.21-.84l2.69,4.45a.56.56,0,0,1,.06.44.63.63,0,0,1-.3.38,69.43,69.43,0,0,1-11.36,5.47.57.57,0,0,1-.48,0,.54.54,0,0,1-.31-.32L103,143.2l.78.35c1.21.53,3.06,1.28,3.71,2.27l-1,.38a.56.56,0,0,1-.47,0,.64.64,0,0,1-.31-.35l-.48.19a1.1,1.1,0,0,0,.57.64,1.15,1.15,0,0,0,.89,0c.49-.2,1-.38,1.48-.61l-.11-.24c-.56-1.28-2.66-2.11-4.12-2.75-.26-.12-.58-.28-.82-.41l-.43-.22-.46.16,2,5.64a1.09,1.09,0,0,0,.58.63,1.19,1.19,0,0,0,.89,0l1.85-.73c1.12-.42,2.55-1.12,4-1.77s2.85-1.41,3.87-2l1.72-1a1.11,1.11,0,0,0,.43-1.55l-3.13-5.11C114.39,136.79,114.25,136.88,114.1,137Z"/><path class="cls-4" d="M104.07,141.74l.58.27c2.5,1.14,4,1.84,4.7,3.26l.48-.22-4.13-8.9-.11-.24-.21.1c-.86.38-1.71.8-2.59,1.13a.68.68,0,0,0-.41.43.94.94,0,0,0,0,.64,3.68,3.68,0,0,0,2.49,2.06,2.56,2.56,0,0,1,.67.3h0l.44-.2-.7-1.6-.43.2.39.9-.24-.08a3.23,3.23,0,0,1-2.19-1.75.31.31,0,0,1,.16-.42l1-.4,1.43-.65,3.16,7a18.56,18.56,0,0,0-3.72-2l-.58-.26c-2.08-1-2.35-1.12-3.08-3.08a2.49,2.49,0,0,1-.27-1.32c.08-.22.38-.33.82-.51,1.44-.53,2.82-1.2,4.22-1.82s2.74-1.37,4-2.17c.42-.24.7-.4.91-.32s.48.39.87,1c1.08,1.79,1,2.11.49,4.33l-.16.62a18.58,18.58,0,0,0-.78,4.14l-3.46-6.8c.78-.4,1.57-.78,2.32-1.24a.29.29,0,0,1,.24,0,.37.37,0,0,1,.2.17,3.22,3.22,0,0,1,0,2.8l-.08.23-.47-.86-.42.21.82,1.54.43-.22h0a2.11,2.11,0,0,1,.18-.71,3.67,3.67,0,0,0-.06-3.22.93.93,0,0,0-.5-.42.72.72,0,0,0-.59.05l-.38.22c-.23.14-.54.31-.86.47l-1.27.64-.2.1.12.24,4.39,8.78.47-.24c-.69-1.41-.28-3.05.38-5.71l.16-.62c.55-2.23.63-2.74-.58-4.72-.49-.8-.82-1.15-1.17-1.26s-.76.06-1.25.35c-1.31.78-2.67,1.44-4,2.14s-2.76,1.28-4.19,1.81c-.52.2-.9.35-1,.76a2.63,2.63,0,0,0,.26,1.71C101.53,140.53,102,140.79,104.07,141.74Z"/><path class="cls-4" d="M70.68,146v0a6,6,0,0,1-1.09.94c-1.28,1-3.13,2.17-3.41,3.58l0,.26,1.58.28a1,1,0,0,0,1.28-.92l-.52-.07a.57.57,0,0,1-.21.41.63.63,0,0,1-.47.07l-1-.18c.42-1.12,2-2.18,3.11-3l.69-.54L69.91,152a.56.56,0,0,1-.24.39.65.65,0,0,1-.47.12c-1-.11-2.06-.32-3.1-.5l-1.54-.28L63,151.33l-.12.51,1.54.35,1.56.28c1,.18,2.07.39,3.12.51a1.14,1.14,0,0,0,1.3-1l.74-6Z"/><path class="cls-4" d="M65.84,139c1.47.38,3,.59,4.48.86.47.06.79.1.91.29s.14.6,0,1.34c-.27,2.06-.52,2.32-2.32,3.71l-.51.38a17.47,17.47,0,0,0-3.2,2.78l1.54-7.48,2.59.47a.28.28,0,0,1,.2.14.42.42,0,0,1,.05.25,3.11,3.11,0,0,1-1.74,2.15l-.22.14.18-1-.46-.08-.33,1.71.48.09h0a2.25,2.25,0,0,1,.59-.44,3.55,3.55,0,0,0,1.95-2.53.86.86,0,0,0-.13-.63.75.75,0,0,0-.49-.35l-1.51-.27-1-.18-.47-.11-2.1,9.85.52.13c.33-1.51,1.69-2.64,3.86-4.24l.5-.38c1.83-1.44,2.22-1.79,2.5-4.08a2.67,2.67,0,0,0-.12-1.73c-.24-.35-.64-.4-1.21-.47-1.48-.27-3-.48-4.44-.85Z"/><path class="cls-4" d="M88.53,152a1.09,1.09,0,0,0,.43.74,1.22,1.22,0,0,0,.87.22c1-.11,2.06-.33,3.08-.5l1.54-.28,1.52-.35-.11-.51-1.52.35-1.52.28c-1,.17-2,.39-3.06.5a.7.7,0,0,1-.47-.12.59.59,0,0,1-.23-.39s-.47-3.54-.68-5.15l.69.53c1.07.84,2.7,1.9,3.11,3l-1,.19a.69.69,0,0,1-.47-.06.65.65,0,0,1-.21-.41l-.52.07a1.18,1.18,0,0,0,.42.76,1.09,1.09,0,0,0,.87.15l1.58-.28,0-.26c-.28-1.41-2.13-2.61-3.41-3.58a6.51,6.51,0,0,1-1.09-.93h0l-.49.07Z"/><path class="cls-4" d="M89.73,145.65l.51.38c2.17,1.59,3.53,2.73,3.87,4.23l.51-.12-2.11-9.85c-1,.23-2,.37-3,.57a.73.73,0,0,0-.49.34.9.9,0,0,0-.12.63,3.53,3.53,0,0,0,2,2.53c.24.15.56.34.59.44h0l.48-.09L91.58,143l-.46.08.17,1c-.07,0-1.78-1.12-2-2.29a.33.33,0,0,1,.25-.39l2.58-.47,1.54,7.47a17.74,17.74,0,0,0-3.19-2.77l-.51-.38c-1.81-1.39-2.05-1.64-2.32-3.71a2.39,2.39,0,0,1,0-1.34c.13-.19.44-.23.92-.29,1.47-.27,3-.47,4.42-.85l-.12-.5c-1.44.37-2.91.57-4.38.84-.56.07-1,.12-1.2.48a2.68,2.68,0,0,0-.13,1.72C87.52,143.86,87.91,144.21,89.73,145.65Z"/><path class="cls-4" d="M85.73,146.28a6.72,6.72,0,0,1-.86,1.13,23.12,23.12,0,0,0-1.67,2.07,3.9,3.9,0,0,0-.86,2.19v.26c.54,0,1.07,0,1.6-.08a1,1,0,0,0,1-1.18l-.52,0a.64.64,0,0,1-.12.45.67.67,0,0,1-.44.18c-.35,0-.69.06-1,.06.16-1.14,1.51-2.65,2.36-3.64.23-.27.41-.48.56-.67l.48,5.17a.6.6,0,0,1-.14.43.67.67,0,0,1-.44.22,71.54,71.54,0,0,1-12.59,0,.63.63,0,0,1-.43-.21.54.54,0,0,1-.14-.43l.48-5.17.56.66c.85,1,2.2,2.5,2.36,3.65-.35,0-.7-.05-1-.07a.58.58,0,0,1-.44-.18.68.68,0,0,1-.12-.45l-.52,0a1.1,1.1,0,0,0,.25.83,1.14,1.14,0,0,0,.8.36c.54,0,1.07.08,1.6.08v-.26c0-1.4-1.49-3-2.52-4.27-.19-.21-.4-.49-.57-.72l-.28-.39-.49,0-.61,6a1.11,1.11,0,0,0,.26.8,1.21,1.21,0,0,0,.8.4l2,.15c1.19.08,2.78.08,4.37.13s3.17,0,4.36-.13l2-.15a1.12,1.12,0,0,0,1.06-1.2l-.6-6Z"/><path class="cls-4" d="M74.6,146.24l.41.49c1.75,2.1,2.83,3.41,2.82,5h.53l.14-9.82v-.26h-.23c-.94,0-1.89,0-2.83-.11a.72.72,0,0,0-.55.21.93.93,0,0,0-.27.59A3.72,3.72,0,0,0,76,145.27c.2.2.47.45.48.55h.48l.07-1.74h-.47l0,1-.18-.18a3.16,3.16,0,0,1-1.21-2.51.32.32,0,0,1,.33-.32s.48,0,1.06.07l1.57,0-.17,7.63a18.83,18.83,0,0,0-2.49-3.39L75,145.9c-1.45-1.77-1.63-2-1.44-4.12a2.39,2.39,0,0,1,.33-1.3c.16-.16.48-.14,1-.1,1.53.15,3.07.14,4.61.19s3.07,0,4.6-.19c.48,0,.8-.06,1,.1a2.44,2.44,0,0,1,.33,1.31c.19,2.08,0,2.35-1.45,4.11l-.41.5a17.68,17.68,0,0,0-2.5,3.38l-.16-7.63c.87,0,1.76,0,2.63-.1a.31.31,0,0,1,.22.09.34.34,0,0,1,.11.23,3.19,3.19,0,0,1-1.22,2.51l-.18.18,0-1h-.47l.06,1.74h.48c0-.1.28-.35.48-.55a3.68,3.68,0,0,0,1.35-2.94.9.9,0,0,0-.27-.58.69.69,0,0,0-.55-.21s-.71.07-1.42.07l-1.42,0h-.23v.26l.14,9.82H81c0-1.56,1.07-2.88,2.82-5l.41-.49c1.47-1.78,1.77-2.2,1.55-4.5a2.72,2.72,0,0,0-.51-1.66c-.31-.3-.71-.27-1.28-.22-1.52.15-3,.13-4.56.18s-3,0-4.57-.19c-.56,0-1-.07-1.28.23a2.69,2.69,0,0,0-.51,1.66C72.83,144.05,73.13,144.46,74.6,146.24Z"/><path class="cls-4" d="M42.67,135.62h0a5.9,5.9,0,0,1-1.38.37c-1.56.28-3.78.6-4.63,1.74l-.16.21,1.31.93a1,1,0,0,0,1.55-.25l-.43-.31a.51.51,0,0,1-.82.14l-.85-.61c.85-.82,2.8-1.09,4.1-1.35l.86-.19-2.85,4.34a.56.56,0,0,1-.38.25.65.65,0,0,1-.47-.09c-1.73-1.18-3.44-2.4-5.07-3.72l-.32.41c1.64,1.33,3.36,2.55,5.1,3.74a1.14,1.14,0,0,0,1.59-.3l3.26-5Z"/><path class="cls-4" d="M41.35,127.23c.6.46,1.18,1,1.8,1.39L45,130c.39.29.67.44.7.66s-.14.6-.55,1.23c-1.14,1.72-1.49,1.88-3.71,2.32l-.62.12a18.57,18.57,0,0,0-4.08,1.1l4.64-6.07c.67.57,1.42,1,2.12,1.56a.3.3,0,0,1,.13.21.45.45,0,0,1-.07.25,3.15,3.15,0,0,1-2.51,1.19l-.26,0,.58-.79-.38-.28-1,1.41.4.28h0a2.49,2.49,0,0,1,.73-.15A3.61,3.61,0,0,0,44,131.59a1,1,0,0,0,.16-.62.75.75,0,0,0-.3-.53l-1.25-.89c-.31-.21-.61-.46-.84-.63l-.37-.3-6.18,8,.41.33a4.14,4.14,0,0,1,2-1.31,21.85,21.85,0,0,1,3.31-.82l.62-.12c2.25-.47,2.77-.65,4-2.58.51-.78.69-1.23.64-1.6s-.41-.63-.88-1l-1.84-1.31c-.61-.44-1.19-.93-1.79-1.39Z"/><path class="cls-4" d="M56.14,148.78a1.06,1.06,0,0,0,.08.85,1.19,1.19,0,0,0,.68.58c2,.61,4,1.19,6,1.63l.12-.51c-2-.43-4-1-6-1.61a.69.69,0,0,1-.37-.32.55.55,0,0,1,0-.45L58.27,144l.39.78c.6,1.19,1.61,2.87,1.5,4.06l-1-.29a.64.64,0,0,1-.39-.26.62.62,0,0,1,0-.46l-.5-.15a1.06,1.06,0,0,0,.06.86,1.12,1.12,0,0,0,.71.51l1.54.44.07-.25c.36-1.39-.78-3.31-1.52-4.71a5.7,5.7,0,0,1-.58-1.31v0l-.47-.16Z"/><path class="cls-4" d="M60,143.55l.29.57c1.26,2.4,2,4,1.65,5.48l.52.12,2.35-9.8c-1-.2-2-.52-2.95-.78a.73.73,0,0,0-.59.09,1,1,0,0,0-.39.52,3.58,3.58,0,0,0,.67,3.13,2.13,2.13,0,0,1,.34.65h0l.47.13.44-1.68-.45-.13-.26,1c0-.07-1.12-1.8-.77-2.92a.34.34,0,0,1,.39-.25l1,.29c.55.16,1.18.34,1.52.4l-1.84,7.41a18.82,18.82,0,0,0-1.68-3.87l-.3-.57c-1-2-1.13-2.37-.49-4.34.23-.71.42-1.08.61-1.19s.49,0,1,.13c1.44.41,2.88.84,4.35,1.14l.12-.5c-1.46-.3-2.89-.73-4.32-1.14-.54-.16-.92-.31-1.29-.08s-.56.61-.86,1.5C58.77,141,59,141.5,60,143.55Z"/><path class="cls-4" d="M56.1,142.4a5.89,5.89,0,0,1-1.26.65c-1.46.65-3.56,1.46-4.13,2.74l-.1.24c.48.23,1,.43,1.48.62a1,1,0,0,0,1.45-.61l-.48-.19a.62.62,0,0,1-.3.35.59.59,0,0,1-.48,0l-1-.39c.65-1,2.51-1.73,3.71-2.26l.79-.35L54,148a.53.53,0,0,1-.31.33.62.62,0,0,1-.48,0,70.3,70.3,0,0,1-11.36-5.48.62.62,0,0,1-.29-.38.52.52,0,0,1,.06-.44s1.84-3.05,2.69-4.44l.21.83c.33,1.27.9,3.19.53,4.31l-.9-.52a.59.59,0,0,1-.32-.35.61.61,0,0,1,.09-.46l-.46-.26a1,1,0,0,0,.43,1.52c.47.27.93.55,1.41.78l.12-.23c.65-1.24,0-3.4-.41-4.94-.08-.28-.15-.62-.2-.9l-.09-.47-.42-.26-3.14,5.11a1.07,1.07,0,0,0-.12.84,1.15,1.15,0,0,0,.55.71l1.72,1c1,.61,2.46,1.29,3.87,2s2.88,1.35,4,1.78l1.84.73a1.12,1.12,0,0,0,1.48-.63l2-5.63Z"/><path class="cls-4" d="M46.1,137.53l.15.63c.66,2.66,1.07,4.29.38,5.71l.47.23,4.39-8.78.12-.23-.2-.1c-.84-.43-1.69-.84-2.5-1.33a.73.73,0,0,0-.6,0,.94.94,0,0,0-.49.41,3.7,3.7,0,0,0-.07,3.23,2.5,2.5,0,0,1,.19.71h0l.43.22.82-1.54-.42-.22-.47.87-.09-.24a3.22,3.22,0,0,1,0-2.8.33.33,0,0,1,.43-.14l.92.53,1.4.71-3.47,6.8a19,19,0,0,0-.77-4.14l-.15-.63c-.55-2.21-.59-2.53.48-4.32.39-.64.66-1,.87-1s.5.08.91.32c1.32.8,2.7,1.47,4.06,2.17s2.77,1.29,4.21,1.82c.45.18.75.3.82.51a2.34,2.34,0,0,1-.26,1.32c-.74,2-1,2.12-3.09,3.08l-.59.26a19.43,19.43,0,0,0-3.72,2l3.17-6.94c.8.36,1.59.75,2.41,1.05a.29.29,0,0,1,.17.17.34.34,0,0,1,0,.26,3.22,3.22,0,0,1-2.18,1.74l-.25.08.39-.9-.43-.2-.7,1.6.45.2h0a2.45,2.45,0,0,1,.67-.29,3.73,3.73,0,0,0,2.49-2.06,1,1,0,0,0,0-.65.73.73,0,0,0-.41-.43l-.41-.16c-.25-.1-.58-.24-.9-.39L53.45,136l-.21-.1-.11.24L49,145l.48.22c.67-1.42,2.21-2.13,4.71-3.26l.58-.26c2.09-1,2.54-1.21,3.33-3.39a2.62,2.62,0,0,0,.26-1.71c-.14-.4-.52-.55-1.05-.76-1.42-.52-2.79-1.19-4.18-1.81s-2.71-1.36-4-2.15c-.49-.28-.84-.48-1.25-.34s-.68.46-1.17,1.25C45.47,134.79,45.54,135.31,46.1,137.53Z"/><path class="cls-4" d="M21.92,114.1h0a5.37,5.37,0,0,1-1.39-.27c-1.54-.41-3.7-1.07-4.94-.42l-.23.12c.24.48.51.94.78,1.4a1,1,0,0,0,1.52.43l-.26-.45a.52.52,0,0,1-.81-.23l-.52-.91c1.12-.36,3,.21,4.31.54l.84.22-4.45,2.68a.56.56,0,0,1-.44.06A.6.6,0,0,1,16,117c-.52-.91-1.06-1.8-1.55-2.73L13,111.43l-.47.23L14,114.47c.49.94,1,1.84,1.56,2.76a1.11,1.11,0,0,0,1.55.42l5.11-3.13C22.09,114.38,22,114.25,21.92,114.1Z"/><path class="cls-4" d="M24.36,106c.7,1.35,1.36,2.72,2.15,4,.24.42.4.69.32.91s-.39.48-1,.86c-1.79,1.08-2.11,1-4.33.49l-.62-.16a19.07,19.07,0,0,0-4.14-.78l6.8-3.46c.4.78.78,1.57,1.24,2.33a.28.28,0,0,1,0,.24.38.38,0,0,1-.16.19,3.22,3.22,0,0,1-2.8,0l-.24-.08.87-.47-.22-.42-1.54.82.22.43h0a2.39,2.39,0,0,1,.71.18,3.64,3.64,0,0,0,3.22-.06.93.93,0,0,0,.42-.5.72.72,0,0,0-.05-.59l-.24-.41c-.15-.25-.33-.59-.5-.93l-.69-1.37-9,4.51.24.47c1.41-.69,3-.28,5.71.38l.62.16c2.23.55,2.75.63,4.72-.58.8-.49,1.15-.81,1.27-1.17s-.07-.76-.35-1.25c-.79-1.29-1.44-2.65-2.14-4Z"/><path class="cls-4" d="M28.38,131.79a1.06,1.06,0,0,0-.31.8,1.23,1.23,0,0,0,.38.81c.74.73,1.52,1.42,2.31,2.09s1.57,1.37,2.4,2l.32-.4c-.82-.63-1.6-1.31-2.38-2s-1.56-1.35-2.29-2.08a.62.62,0,0,1-.21-.44.58.58,0,0,1,.16-.42l3.6-3.74,0,.87c0,1.34.18,3.31-.42,4.31l-.79-.68a.6.6,0,0,1-.23-.42.63.63,0,0,1,.18-.42l-.37-.36a1.1,1.1,0,0,0-.33.8,1.06,1.06,0,0,0,.41.78l1.21,1,.17-.2c.93-1.09.7-3.27.68-4.9a5.69,5.69,0,0,1,0-1.42h0l-.36-.34Z"/><path class="cls-4" d="M34.11,128.75v.65c.11,2.68.08,4.44-.89,5.65l.41.33,6.38-7.8-2.32-2a.77.77,0,0,0-.57-.18.9.9,0,0,0-.57.29,3.6,3.6,0,0,0-.76,3.12,2.38,2.38,0,0,1,0,.73h0l.36.32,1.14-1.33-.36-.3-.64.74c0-.09-.25-2.08.57-3a.32.32,0,0,1,.45,0l2,1.71-4.88,5.87a17.06,17.06,0,0,0,.17-4.21l0-.64c0-2.3,0-2.62,1.45-4.13.52-.55.85-.8,1.07-.82s.45.2.8.53c.53.54,1.13,1,1.69,1.5s1.13,1,1.73,1.44l.32-.41c-.59-.44-1.16-.93-1.71-1.42s-1.15-1-1.68-1.48-.7-.68-1.13-.64-.77.31-1.43,1C34.12,125.91,34.09,126.43,34.11,128.75Z"/><path class="cls-4" d="M31.12,126a6.16,6.16,0,0,1-1.43,0c-1.62,0-3.81-.25-4.9.68l-.2.17,1.05,1.21a1,1,0,0,0,1.59.07l-.36-.37a.66.66,0,0,1-.43.19.6.6,0,0,1-.42-.24l-.68-.78c1-.6,3-.45,4.31-.43l.88,0-3.74,3.6a.58.58,0,0,1-.43.16.69.69,0,0,1-.44-.2,76.2,76.2,0,0,1-7.87-9.85.65.65,0,0,1-.09-.47.56.56,0,0,1,.25-.38l4.35-2.85c0,.24-.11.52-.19.86-.27,1.3-.54,3.25-1.36,4.11l-.61-.86a.64.64,0,0,1-.14-.45.61.61,0,0,1,.28-.37l-.31-.42a1.09,1.09,0,0,0-.49.7A1.15,1.15,0,0,0,20,121l.93,1.31.21-.15c1.14-.86,1.46-3.08,1.75-4.63.06-.28.15-.63.22-.9s.14-.47.14-.47l-.27-.42-5,3.25a1.11,1.11,0,0,0-.47.71,1.2,1.2,0,0,0,.17.88l.3.46.84,1.17c.34.49.74,1.05,1.18,1.66l1.44,1.83c.95,1.27,2.05,2.43,2.81,3.34.38.46.74.8,1,1.06l.38.39a1.12,1.12,0,0,0,1.6.08l4.29-4.19Z"/><path class="cls-4" d="M24.19,117.31l-.12.62c-.53,2.66-.94,4.37-2.14,5.31l.33.42,7.76-6,.2-.16-.14-.18c-.6-.72-1.12-1.52-1.68-2.28a.7.7,0,0,0-.52-.29.91.91,0,0,0-.63.16,3.63,3.63,0,0,0-1.43,2.86,2.12,2.12,0,0,1-.14.72h0l.28.4,1.4-1-.27-.38-.8.58,0-.26a3.21,3.21,0,0,1,1.2-2.51.34.34,0,0,1,.46.06s.28.4.62.86.71,1,.93,1.26l-6.07,4.63A18.4,18.4,0,0,0,24.57,118l.12-.63c.44-2.21.6-2.55,2.33-3.69.62-.41,1-.59,1.22-.56s.38.31.66.7A65.07,65.07,0,0,0,34.64,121c.34.34.56.58.54.8s-.28.55-.81,1.07c-1.52,1.45-1.84,1.48-4.14,1.45l-.64,0a17,17,0,0,0-4.21.17l5.86-4.89,1.72,2a.3.3,0,0,1,.07.23.29.29,0,0,1-.11.22,3.15,3.15,0,0,1-2.71.61l-.25,0,.74-.65-.31-.36-1.32,1.14.32.37h0a2,2,0,0,1,.73,0,3.55,3.55,0,0,0,3.12-.77.86.86,0,0,0,.29-.57.75.75,0,0,0-.18-.56l-1.86-2.15-.14-.18-.2.17-7.59,6.23c.1.14.22.27.33.41,1.21-1,3-1,5.65-.9h.65c2.32,0,2.83,0,4.49-1.62.67-.65.94-1,1-1.43s-.24-.72-.64-1.13a63,63,0,0,1-5.69-7.12c-.33-.46-.53-.82-.95-.87s-.82.12-1.61.63C24.84,114.54,24.66,115.05,24.19,117.31Z"/><path class="cls-4" d="M12.6,85.72h0a5.84,5.84,0,0,1-1.14-.86,23.12,23.12,0,0,0-2.07-1.67,3.85,3.85,0,0,0-2.19-.86H7c0,.54,0,1.07.08,1.6a1,1,0,0,0,1.19,1l0-.52a.62.62,0,0,1-.45-.12.58.58,0,0,1-.18-.44c0-.35-.07-.69-.07-1,1.15.16,2.65,1.51,3.65,2.36.26.23.48.42.66.56l-5.17.48a.6.6,0,0,1-.43-.14A.63.63,0,0,1,6,85.7c-.2-2.09-.24-4.18-.28-6.27H5.19c0,2.1.08,4.21.28,6.31a1.12,1.12,0,0,0,1.2,1.06l6-.59Z"/><path class="cls-4" d="M18.32,79.44c.06,1.52,0,3,.19,4.57,0,.48.06.8-.1,1a2.39,2.39,0,0,1-1.3.33c-2.08.19-2.35,0-4.12-1.45l-.49-.41a18,18,0,0,0-3.39-2.5l7.63-.16c0,.88,0,1.76.1,2.63a.27.27,0,0,1-.08.23.4.4,0,0,1-.24.1A3.16,3.16,0,0,1,14,82.52l-.18-.18,1,0,0-.47-1.74.06v.48h0c.1,0,.36.28.55.48a3.68,3.68,0,0,0,2.94,1.35.93.93,0,0,0,.59-.27.72.72,0,0,0,.21-.55s-.07-.76-.07-1.53l0-1.54-10.08.14V81c1.57,0,2.88,1.07,5,2.82l.5.42c1.78,1.46,2.19,1.76,4.49,1.54a2.69,2.69,0,0,0,1.66-.51c.3-.31.27-.71.23-1.28-.16-1.5-.13-3-.19-4.53Z"/><path class="cls-4" d="M10.69,104.46a1.06,1.06,0,0,0-.61.58,1.22,1.22,0,0,0,0,.9c.39,1,.74,1.94,1.17,2.89l1.29,2.85.47-.23-1.28-2.82c-.43-.95-.78-1.92-1.16-2.88a.57.57,0,0,1,0-.48.54.54,0,0,1,.32-.31l4.87-1.81c-.1.21-.21.47-.36.78-.52,1.21-1.28,3.07-2.25,3.72-.14-.32-.26-.65-.39-1a.64.64,0,0,1,0-.48.66.66,0,0,1,.36-.3l-.19-.49a1,1,0,0,0-.61,1.46l.29.75.33.73.24-.1c1.28-.57,2.09-2.67,2.74-4.13a5.64,5.64,0,0,1,.65-1.26h0a4.28,4.28,0,0,1-.17-.46Z"/><path class="cls-4" d="M17.2,104.19l-.26.59c-1.13,2.49-1.84,4-3.26,4.71l.22.48L23,105.7c-.41-.93-.88-1.84-1.23-2.8a.7.7,0,0,0-.44-.4.88.88,0,0,0-.64,0A3.7,3.7,0,0,0,18.67,105a2.06,2.06,0,0,1-.29.67h0l.2.44,1.6-.7L20,105l-.9.39c0-.08.72-2,1.82-2.43a.33.33,0,0,1,.43.16s.16.46.4,1,.51,1.12.65,1.42l-6.94,3.18a18.12,18.12,0,0,0,2-3.72l.27-.59c1-2.07,1.12-2.35,3.07-3.08.71-.26,1.11-.35,1.32-.27s.34.37.51.82c.52,1.41,1.18,2.76,1.79,4.13l.47-.23c-.61-1.36-1.26-2.69-1.78-4.09-.2-.53-.35-.91-.76-1.05a2.62,2.62,0,0,0-1.71.26C18.41,101.66,18.16,102.1,17.2,104.19Z"/><path class="cls-4" d="M15.68,100.43a5.3,5.3,0,0,1-1.32-.57C13,99.12,11,98,9.66,98.34l-.25.07L9.85,100a1,1,0,0,0,1.36.77l-.14-.5a.62.62,0,0,1-.46,0,.65.65,0,0,1-.27-.39l-.28-1c1.18-.11,2.86.9,4.06,1.5l.78.39L10,102.31a.55.55,0,0,1-.45,0,.69.69,0,0,1-.32-.37A75,75,0,0,1,6.42,89.6a.65.65,0,0,1,.12-.47.55.55,0,0,1,.39-.23l5.15-.66-.54.68c-.83,1.07-1.91,2.7-3,3.11l-.18-1a.5.5,0,0,1,.47-.68l-.07-.52a1.05,1.05,0,0,0-.75.42,1,1,0,0,0-.16.86l.28,1.58.25,0c1.42-.27,2.61-2.12,3.6-3.4.17-.23.4-.5.59-.71l.32-.37-.06-.48-5.95.72a1.09,1.09,0,0,0-.73.43,1.18,1.18,0,0,0-.23.87l.07.54c0,.35.12.84.23,1.43.22,1.17.46,2.74.85,4.28.18.78.34,1.55.53,2.27s.39,1.39.56,2l.39,1.39.18.52a1.16,1.16,0,0,0,1.43.76l5.68-1.92Z"/><path class="cls-4" d="M13.22,89.59l-.38.51c-1.6,2.16-2.73,3.52-4.24,3.85l.12.51,9.6-2,.26-.05,0-.23L18,89.37a.73.73,0,0,0-.34-.49.83.83,0,0,0-.62-.13,3.54,3.54,0,0,0-2.54,2,2.25,2.25,0,0,1-.44.59h0l.09.47,1.71-.32L15.79,91l-1,.17.14-.21a3.11,3.11,0,0,1,2.15-1.74.34.34,0,0,1,.39.25L18,92l-7.48,1.52a17.25,17.25,0,0,0,2.78-3.18l.38-.51c1.4-1.81,1.65-2.05,3.71-2.32a2.48,2.48,0,0,1,1.35,0c.18.12.22.44.28.92a67,67,0,0,0,2,8.95c.14.46.26.76.14,1s-.48.38-1.19.62c-2,.64-2.34.54-4.35-.49l-.56-.3a18.87,18.87,0,0,0-3.88-1.68l7.41-1.85c.19.86.46,1.69.69,2.54a.3.3,0,0,1,0,.24.37.37,0,0,1-.2.15A3.13,3.13,0,0,1,16.33,97l-.22-.13.95-.26-.13-.46-1.68.45.13.47h0c.1,0,.42.19.65.33a3.55,3.55,0,0,0,3.13.67.89.89,0,0,0,.52-.39.73.73,0,0,0,.1-.59l-.39-1.36c-.21-.68-.35-1.37-.35-1.37L19,94.14l-.25.06L9.19,96.51l.12.52c1.49-.35,3.09.39,5.49,1.65l.56.29c2.06,1,2.57,1.22,4.75.49.89-.3,1.31-.54,1.5-.86s.08-.75-.09-1.29a64.41,64.41,0,0,1-2-8.88c-.07-.56-.12-1-.48-1.2a2.55,2.55,0,0,0-1.72-.13C15,87.38,14.67,87.76,13.22,89.59Z"/><path class="cls-4" d="M16.48,56.08h0a5.64,5.64,0,0,1-.65-1.26c-.65-1.46-1.47-3.56-2.75-4.13l-.24-.1c-.23.48-.42,1-.61,1.48a1,1,0,0,0,.61,1.45l.19-.48a.63.63,0,0,1-.36-.3.68.68,0,0,1,0-.48l.39-1c1,.64,1.74,2.5,2.26,3.7.14.32.26.58.36.79L10.86,54a.52.52,0,0,1-.32-.31.61.61,0,0,1,0-.48c.4-1,.75-2,1.18-2.91L13,47.42l-.47-.22-1.31,2.88c-.43,1-.79,2-1.18,2.94a1.1,1.1,0,0,0,.63,1.47l5.63,2C16.36,56.38,16.42,56.23,16.48,56.08Z"/><path class="cls-4" d="M24.36,52.92c-.62,1.39-1.28,2.76-1.81,4.18-.17.45-.29.75-.5.83a2.52,2.52,0,0,1-1.33-.27c-1.95-.73-2.12-1-3.07-3.09L17.38,54a18.21,18.21,0,0,0-2-3.73l7,3.17c-.36.8-.75,1.59-1.05,2.41a.3.3,0,0,1-.18.17.31.31,0,0,1-.25,0,3.17,3.17,0,0,1-1.74-2.18l-.09-.24L20,54l.19-.42-1.59-.7-.2.44h0a2.18,2.18,0,0,1,.3.66,3.66,3.66,0,0,0,2.06,2.49.94.94,0,0,0,.64,0,.74.74,0,0,0,.44-.41s.26-.72.59-1.41l.64-1.4L13.88,49l-.22.48c1.41.68,2.12,2.21,3.25,4.71l.27.58c1,2.09,1.21,2.54,3.39,3.34a2.67,2.67,0,0,0,1.7.26c.41-.15.56-.53.76-1.06.52-1.41,1.18-2.77,1.8-4.15Z"/><path class="cls-4" d="M6.66,72.16a1.06,1.06,0,0,0-.8.25,1.18,1.18,0,0,0-.39.81c-.2,2.07-.24,4.15-.28,6.23h.52c0-2.07.07-4.13.27-6.19a.6.6,0,0,1,.22-.43.51.51,0,0,1,.42-.14l5.17.47-.66.56c-1,.85-2.5,2.21-3.64,2.36,0-.34,0-.69.06-1a.67.67,0,0,1,.18-.44.63.63,0,0,1,.45-.12l0-.52a1.14,1.14,0,0,0-.83.24A1.18,1.18,0,0,0,7,75s0,.4,0,.8l0,.8h.26a3.8,3.8,0,0,0,2.19-.86,26.37,26.37,0,0,0,2.07-1.67,5.57,5.57,0,0,1,1.13-.86h0l0-.48Z"/><path class="cls-4" d="M12.64,74.73l-.49.42C10.06,76.91,8.74,78,7.18,78v.53l10.08.12c0-1,0-2,.1-3.06a.71.71,0,0,0-.21-.56.94.94,0,0,0-.59-.26,3.66,3.66,0,0,0-2.93,1.35c-.19.2-.45.47-.55.48h0v.48l1.74.06v-.47l-1,0c0-.07,1.5-1.5,2.69-1.4a.32.32,0,0,1,.31.33l0,.31c0,.19,0,.46,0,.74,0,.58,0,1.24,0,1.57L9.11,78a18.24,18.24,0,0,0,3.38-2.51l.5-.41c1.76-1.46,2-1.64,4.11-1.45a2.44,2.44,0,0,1,1.31.33c.16.16.13.48.1,1-.16,1.49-.13,3-.19,4.51h.52c.06-1.49,0-3,.18-4.47.05-.57.08-1-.23-1.29a2.68,2.68,0,0,0-1.66-.5C14.84,73,14.42,73.27,12.64,74.73Z"/><path class="cls-4" d="M12.9,70.69A6.06,6.06,0,0,1,12,69.6c-1-1.28-2.18-3.13-3.59-3.41l-.25,0-.29,1.58A1,1,0,0,0,8.76,69l.07-.52a.57.57,0,0,1-.41-.21.63.63,0,0,1-.07-.47l.19-1c1.11.41,2.18,2,3,3.11q.31.42.54.69l-5.15-.67a.61.61,0,0,1-.39-.24.65.65,0,0,1-.12-.47,75.14,75.14,0,0,1,2.8-12.29.63.63,0,0,1,.31-.37.55.55,0,0,1,.45,0l4.93,1.63-.78.38c-1.2.6-2.88,1.61-4.06,1.5l.28-1a.53.53,0,0,1,.73-.41c.05-.16.09-.33.15-.5a1.1,1.1,0,0,0-.86,0,1.13,1.13,0,0,0-.51.72L9.43,60.4l.25.07c1.38.36,3.3-.78,4.71-1.52.26-.13.58-.27.84-.38l.45-.19.16-.47L10.16,56a1.1,1.1,0,0,0-.85.07,1.21,1.21,0,0,0-.58.69s-.26.75-.57,1.9c-.16.58-.35,1.25-.56,2s-.35,1.5-.54,2.27c-.38,1.55-.63,3.12-.84,4.29s-.3,2-.3,2a1.14,1.14,0,0,0,1,1.31l6,.73Z"/><path class="cls-4" d="M15.38,59.84l-.56.3c-2.4,1.25-4,2-5.49,1.64l-.12.51,9.54,2.32.25.06.05-.22c.2-.92.5-1.82.74-2.73a.73.73,0,0,0-.09-.59.89.89,0,0,0-.52-.39,3.58,3.58,0,0,0-3.13.66,2.13,2.13,0,0,1-.65.34h0l-.13.47,1.68.45.13-.46-.95-.26.22-.13a3.11,3.11,0,0,1,2.7-.63.34.34,0,0,1,.25.39l-.29,1c-.15.55-.35,1.18-.41,1.51l-7.4-1.85a19.08,19.08,0,0,0,3.88-1.67l.56-.3c2-1,2.37-1.13,4.34-.48.72.23,1.09.42,1.2.61s0,.49-.14,1a67,67,0,0,0-2,9c-.06.48-.1.8-.28.92s-.6.14-1.34,0c-2.07-.28-2.32-.52-3.72-2.32l-.38-.51a17.47,17.47,0,0,0-2.77-3.2L18,66.78l-.46,2.59a.35.35,0,0,1-.14.2.43.43,0,0,1-.25.05A3.13,3.13,0,0,1,15,67.88l-.14-.22,1,.18.08-.46-1.71-.33-.09.48h0c.1,0,.3.35.44.58a3.55,3.55,0,0,0,2.54,2,.83.83,0,0,0,.62-.13.75.75,0,0,0,.35-.49s.13-.7.25-1.39c.06-.35.13-.7.17-1a3.58,3.58,0,0,1,.09-.44l.06-.22-.26,0-9.6-2-.12.52c1.5.33,2.64,1.69,4.24,3.86l.37.5c1.45,1.83,1.8,2.22,4.09,2.5A2.54,2.54,0,0,0,19,71.59c.36-.23.41-.63.47-1.2a67,67,0,0,1,2-8.87c.18-.55.32-.93.1-1.29s-.61-.57-1.5-.87C18,58.63,17.45,58.82,15.38,59.84Z"/><path class="cls-4" d="M32.88,31.09v0a5.63,5.63,0,0,1,0-1.43c0-1.62.25-3.81-.68-4.9l-.17-.2-1.21,1.05a1,1,0,0,0-.08,1.59l.38-.36a.66.66,0,0,1-.19-.43.6.6,0,0,1,.23-.41l.79-.69c.6,1,.45,3,.42,4.32,0,.35,0,.63,0,.87l-3.6-3.74a.56.56,0,0,1-.16-.43.64.64,0,0,1,.2-.44l1.14-1.08,1.18-1c.79-.68,1.58-1.38,2.41-2l-.32-.4c-.84.63-1.63,1.33-2.43,2l-1.19,1L28.4,25.54a1.13,1.13,0,0,0-.07,1.61l4.19,4.28Z"/><path class="cls-4" d="M41.35,31.66c-.61.46-1.18.95-1.75,1.46s-1.17,1-1.71,1.52c-.35.33-.58.55-.8.53s-.56-.27-1.07-.81c-1.45-1.51-1.48-1.84-1.46-4.14l0-.64a17.12,17.12,0,0,0-.16-4.21l4.88,5.86-2,1.72a.29.29,0,0,1-.23.08.35.35,0,0,1-.22-.12,3.1,3.1,0,0,1-.61-2.7l0-.26.65.74.36-.3-1.14-1.33-.37.32h0a2,2,0,0,1,0,.73,3.57,3.57,0,0,0,.76,3.12.9.9,0,0,0,.57.29.76.76,0,0,0,.57-.18l2.32-2-6.39-7.79-.41.34c1,1.2,1,3,.9,5.65v.64c0,2.32,0,2.84,1.61,4.49.66.67,1.06.94,1.43,1s.72-.24,1.13-.64,1.13-1,1.7-1.5,1.13-1,1.74-1.45Z"/><path class="cls-4" d="M17,41.29a1.07,1.07,0,0,0-.84-.12,1.16,1.16,0,0,0-.7.55c-.51.91-1.06,1.8-1.54,2.72l-1.42,2.78.47.22,1.41-2.76c.48-.91,1-1.8,1.52-2.7a.65.65,0,0,1,.38-.29.51.51,0,0,1,.45.06l4.45,2.68-.84.21c-1.27.34-3.2.91-4.31.54l.52-.9a.65.65,0,0,1,.35-.33.67.67,0,0,1,.45.09l.26-.45a1.14,1.14,0,0,0-.85-.14,1.18,1.18,0,0,0-.67.57l-.4.7c-.19.35-.37.71-.37.71l.23.12c1.25.65,3.4,0,4.94-.42a5.37,5.37,0,0,1,1.39-.28h0c.08-.14.16-.28.25-.42Z"/><path class="cls-4" d="M21.29,46.22l-.62.15c-2.66.67-4.3,1.08-5.71.39l-.24.47,9,4.49c.48-.9.9-1.83,1.43-2.7a.73.73,0,0,0,0-.6.91.91,0,0,0-.42-.49,3.64,3.64,0,0,0-3.22-.06,2.5,2.5,0,0,1-.71.19h0l-.22.43,1.54.81.22-.42-.87-.46c.06-.05,2-.69,3-.09a.32.32,0,0,1,.15.43s-.25.42-.52.93l-.71,1.39-6.81-3.45a18.38,18.38,0,0,0,4.14-.78l.62-.16c2.22-.54,2.54-.59,4.33.48.64.39,1,.66,1,.87s-.08.49-.32.91c-.78,1.29-1.43,2.64-2.12,4l.46.23c.69-1.32,1.33-2.67,2.11-3.94.28-.49.48-.84.34-1.25s-.46-.69-1.26-1.18C24,45.58,23.52,45.66,21.29,46.22Z"/><path class="cls-4" d="M23.29,42.68a6,6,0,0,1-.38-1.39c-.28-1.55-.6-3.77-1.74-4.62L21,36.51,20,37.82a1,1,0,0,0,.26,1.55l.3-.43a.61.61,0,0,1-.28-.37.66.66,0,0,1,.14-.45l.61-.85c.82.85,1.1,2.8,1.35,4.1.07.35.13.63.19.86l-4.34-2.85A.56.56,0,0,1,18,39a.65.65,0,0,1,.09-.47A75.51,75.51,0,0,1,26,28.69a.62.62,0,0,1,.44-.2.54.54,0,0,1,.42.16l3.74,3.6-.87,0c-.67,0-1.5,0-2.29,0a4.36,4.36,0,0,1-2-.44l.69-.79a.62.62,0,0,1,.41-.23.64.64,0,0,1,.43.19l.36-.38a1.14,1.14,0,0,0-.8-.33,1.17,1.17,0,0,0-.79.4l-1.05,1.22.2.17c1.09.93,3.28.71,4.9.69.29,0,.65,0,.93,0l.48,0,.34-.35-4.28-4.2a1,1,0,0,0-.79-.3,1.18,1.18,0,0,0-.82.37s-.56.57-1.35,1.45-1.86,2.07-2.82,3.34L20,35l-1.18,1.66L18,37.78c-.2.29-.3.46-.3.46a1.14,1.14,0,0,0,.3,1.59l5,3.25Z"/><path class="cls-4" d="M30.24,34h-.65c-2.68.1-4.44.08-5.64-.9l-.34.4,7.58,6.24.2.17.15-.18,1.85-2.14a.67.67,0,0,0,.18-.56.94.94,0,0,0-.28-.58,3.63,3.63,0,0,0-3.13-.77,2.38,2.38,0,0,1-.73,0h0l-.32.36,1.32,1.14.31-.35L30,36.22l.25,0A3.12,3.12,0,0,1,33,36.8a.33.33,0,0,1,0,.45l-1.72,2-5.86-4.89a17.06,17.06,0,0,0,4.21.17l.64,0c2.3,0,2.62,0,4.13,1.46.54.52.79.85.81,1.07s-.2.46-.53.8A63,63,0,0,0,28.94,45c-.28.39-.43.67-.66.7s-.6-.14-1.22-.55c-1.73-1.14-1.89-1.49-2.32-3.71l-.13-.62a18.57,18.57,0,0,0-1.1-4.08l6.07,4.64c-.57.67-1,1.42-1.56,2.12a.28.28,0,0,1-.21.12.39.39,0,0,1-.25-.06,3.18,3.18,0,0,1-1.19-2.51l0-.26.79.58.28-.38L26,40l-.28.39h0a2.2,2.2,0,0,1,.15.73,3.58,3.58,0,0,0,1.43,2.86,1,1,0,0,0,.63.17.75.75,0,0,0,.52-.3l.82-1.15c.2-.3.41-.58.58-.79l.28-.34.14-.18-.2-.16-7.76-6-.33.41a4.22,4.22,0,0,1,1.32,2,22,22,0,0,1,.81,3.31l.12.62c.47,2.25.65,2.77,2.58,4a2.7,2.7,0,0,0,1.6.64c.43-.06.63-.41,1-.88a62.71,62.71,0,0,1,5.7-7.11c.39-.41.67-.71.63-1.14s-.31-.77-1-1.43C33.07,34,32.56,34,30.24,34Z"/><path class="cls-4" d="M58.46,15.66v0A5.72,5.72,0,0,1,59,14.36c.74-1.4,1.88-3.33,1.52-4.71l-.07-.25L59,9.84a1,1,0,0,0-.77,1.37l.5-.15a.62.62,0,0,1,0-.46.58.58,0,0,1,.39-.26l1-.29c.11,1.18-.89,2.87-1.49,4.06-.16.31-.29.57-.39.79L56.59,10a.55.55,0,0,1,0-.45A.6.6,0,0,1,57,9.2c2-.62,4-1.21,6.06-1.65L63,7.05c-2.07.44-4.09,1-6.11,1.65a1.14,1.14,0,0,0-.76,1.43L58,15.81Z"/><path class="cls-4" d="M65.84,19.86c-1.49.3-2.94.75-4.4,1.16-.47.14-.76.25-1,.13s-.37-.48-.61-1.19c-.64-2-.54-2.33.49-4.35l.3-.56a18.64,18.64,0,0,0,1.68-3.88l1.85,7.41c-.86.19-1.69.47-2.54.69a.29.29,0,0,1-.24,0,.36.36,0,0,1-.15-.21,3.1,3.1,0,0,1,.63-2.7l.13-.22.26.95.46-.13-.45-1.69-.47.13h0a2.27,2.27,0,0,1-.34.66,3.6,3.6,0,0,0-.67,3.13,1,1,0,0,0,.39.51.71.71,0,0,0,.59.1l1.48-.41c.37-.11.74-.22,1-.27l.46-.11L62.38,9.19l-.51.11c.34,1.49-.39,3.09-1.65,5.49l-.29.56c-1,2.06-1.22,2.57-.49,4.76.3.88.54,1.3.86,1.49s.75.08,1.29-.09c1.45-.41,2.89-.84,4.37-1.15Z"/><path class="cls-4" d="M39.78,18a1.13,1.13,0,0,0-.71-.47,1.22,1.22,0,0,0-.89.17c-1.71,1.18-3.41,2.39-5,3.7l.33.4c1.6-1.3,3.29-2.49,5-3.67A.67.67,0,0,1,39,18a.59.59,0,0,1,.38.25s2,3,2.85,4.34l-.86-.19c-1.3-.25-3.25-.53-4.11-1.35l.86-.6a.61.61,0,0,1,.45-.15.65.65,0,0,1,.37.28l.42-.3a1.06,1.06,0,0,0-.7-.49,1.07,1.07,0,0,0-.84.24L36.46,21l.15.21c.86,1.14,3.08,1.46,4.63,1.75a5.8,5.8,0,0,1,1.39.36h0L43,23Z"/><path class="cls-4" d="M41.47,24.27l-.62-.12a23.12,23.12,0,0,1-3.31-.82,4.21,4.21,0,0,1-2-1.31l-.41.33,6.19,8c.78-.65,1.62-1.23,2.45-1.82a.75.75,0,0,0,.3-.53,1,1,0,0,0-.16-.62A3.61,3.61,0,0,0,41,25.9a2.26,2.26,0,0,1-.73-.14h0l-.39.28,1,1.4.38-.27-.58-.8c.09,0,2.11.25,2.77,1.23a.33.33,0,0,1-.05.45l-.87.62c-.47.32-1,.72-1.25.94l-4.64-6.06a19.65,19.65,0,0,0,4.07,1.1l.63.12c2.21.43,2.55.59,3.7,2.31.41.63.58,1,.55,1.22s-.31.39-.69.67l-1.84,1.31c-.61.44-1.19.92-1.78,1.38l.32.41c.59-.46,1.16-.94,1.77-1.37l1.82-1.3c.45-.34.82-.53.87-1s-.13-.82-.64-1.6C44.24,24.91,43.72,24.73,41.47,24.27Z"/><path class="cls-4" d="M44.8,21.94a5.77,5.77,0,0,1,.27-1.39c.41-1.54,1.07-3.7.42-4.94l-.12-.23c-.48.24-.94.51-1.4.78a1,1,0,0,0-.43,1.52l.45-.26A.67.67,0,0,1,43.9,17a.62.62,0,0,1,.32-.35l.91-.52c.37,1.12-.21,3-.54,4.31-.1.33-.17.61-.22.84l-2.68-4.45a.56.56,0,0,1-.06-.44.6.6,0,0,1,.3-.38,70.3,70.3,0,0,1,11.36-5.48.61.61,0,0,1,.48,0,.54.54,0,0,1,.31.32s1.24,3.34,1.8,4.87l-.79-.35c-1.2-.53-3.06-1.28-3.7-2.27l1-.38a.61.61,0,0,1,.47,0,.66.66,0,0,1,.3.36l.49-.19a1.09,1.09,0,0,0-.58-.64,1.13,1.13,0,0,0-.88,0c-.49.19-1,.38-1.48.61l.1.24c.57,1.28,2.67,2.11,4.13,2.75.26.12.58.28.82.41l.43.22.46-.16-2-5.64A1.12,1.12,0,0,0,54,10a1.17,1.17,0,0,0-.9,0l-1.84.73c-1.12.42-2.55,1.12-4,1.77s-2.85,1.41-3.87,2l-1.73,1a1.11,1.11,0,0,0-.42,1.55l3.13,5.11C44.51,22.1,44.65,22,44.8,21.94Z"/><path class="cls-4" d="M54.83,17.14l-.58-.26c-2.5-1.14-4-1.84-4.71-3.26l-.47.22,4.13,8.9.11.24.21-.1c.86-.38,1.71-.8,2.59-1.13a.68.68,0,0,0,.41-.43.94.94,0,0,0,0-.64A3.68,3.68,0,0,0,54,18.62a2.56,2.56,0,0,1-.67-.3h0l-.44.2.7,1.6.43-.2-.39-.9.24.08a3.23,3.23,0,0,1,2.19,1.75.32.32,0,0,1-.16.42l-1,.4-1.42.65-3.16-7a18.44,18.44,0,0,0,3.71,2l.59.26c2.07,1,2.35,1.12,3.08,3.08A2.49,2.49,0,0,1,58,22c-.08.22-.38.33-.83.51-1.43.53-2.81,1.2-4.21,1.82s-2.74,1.37-4.06,2.17c-.41.24-.69.39-.91.32s-.48-.39-.86-1c-1.08-1.79-1-2.11-.49-4.33l.16-.62a18.48,18.48,0,0,0,.77-4.14L51,23.51c-.78.4-1.57.78-2.33,1.24a.33.33,0,0,1-.24,0,.35.35,0,0,1-.19-.17,3.22,3.22,0,0,1,0-2.8l.08-.23.47.86.42-.21-.82-1.54L48,20.9h0a2.28,2.28,0,0,1-.18.7,3.66,3.66,0,0,0,.06,3.23.93.93,0,0,0,.5.42A.76.76,0,0,0,49,25.2l.38-.22c.23-.14.54-.31.86-.47l1.26-.64.21-.11-.12-.23-4.39-8.78L46.7,15c.69,1.41.28,3-.38,5.71l-.16.62c-.55,2.23-.63,2.74.58,4.72.49.8.81,1.15,1.17,1.26s.76-.06,1.25-.35c1.3-.78,2.67-1.44,4-2.15s2.76-1.27,4.18-1.8c.53-.21.91-.35,1.06-.76a2.63,2.63,0,0,0-.26-1.71C57.37,18.36,56.92,18.1,54.83,17.14Z"/><path class="cls-4" d="M88.22,12.88v0A5.65,5.65,0,0,1,89.3,12c1.28-1,3.13-2.17,3.4-3.58l0-.26-1.58-.28a1,1,0,0,0-1.28.92l.52.06a.57.57,0,0,1,.21-.4.63.63,0,0,1,.47-.07l1,.18c-.41,1.12-2,2.18-3.1,3l-.69.54L89,6.94a.58.58,0,0,1,.23-.39.67.67,0,0,1,.47-.12c1,.11,2.07.32,3.1.5l1.55.28,1.53.35L96,7.05,94.45,6.7l-1.56-.28c-1-.18-2.08-.4-3.12-.51a1.15,1.15,0,0,0-1.31,1l-.73,6Z"/><path class="cls-4" d="M93.06,19.86c-1.47-.38-3-.59-4.48-.86-.48-.06-.79-.1-.92-.29a2.38,2.38,0,0,1,0-1.34c.27-2.06.51-2.32,2.32-3.71l.51-.38a17,17,0,0,0,3.19-2.78L92.12,18l-2.59-.47a.28.28,0,0,1-.2-.14.36.36,0,0,1,0-.25A3.11,3.11,0,0,1,91,15l.21-.14-.17,1,.46.08.33-1.71-.48-.09h0a2.25,2.25,0,0,1-.59.44,3.55,3.55,0,0,0-2,2.53.86.86,0,0,0,.13.63.76.76,0,0,0,.49.35l1.5.27,1,.18.47.11,2.09-9.86L94,8.61c-.33,1.51-1.69,2.64-3.86,4.24l-.51.38c-1.82,1.44-2.21,1.79-2.5,4.08A2.72,2.72,0,0,0,87.3,19c.24.35.64.4,1.21.47,1.48.27,3,.48,4.44.85Z"/><path class="cls-4" d="M70.37,6.88a1.09,1.09,0,0,0-.43-.74,1.22,1.22,0,0,0-.87-.22C68,6,67,6.25,66,6.42l-1.54.28-1.52.35.11.51,1.51-.35,1.53-.28c1-.17,2-.39,3.06-.5a.71.71,0,0,1,.47.12.59.59,0,0,1,.23.39s.46,3.54.68,5.15l-.69-.53c-1.07-.84-2.7-1.9-3.11-3l1-.18a.66.66,0,0,1,.46.06.67.67,0,0,1,.22.41L69,8.76A1.14,1.14,0,0,0,68.52,8a1.06,1.06,0,0,0-.86-.15l-1.58.28,0,.26C66.4,9.8,68.26,11,69.54,12a5.89,5.89,0,0,1,1.08.93h0l.49-.07Z"/><path class="cls-4" d="M69.17,13.24l-.51-.38c-2.17-1.59-3.53-2.73-3.87-4.23l-.51.12,2.11,9.85c1-.23,2-.37,3-.57a.71.71,0,0,0,.49-.34.87.87,0,0,0,.13-.63,3.53,3.53,0,0,0-2-2.53c-.23-.15-.55-.34-.58-.44h0l-.48.09.33,1.71.46-.08-.18-1c.08,0,1.79,1.12,2,2.29a.33.33,0,0,1-.25.39L66.73,18l-1.55-7.47a17.86,17.86,0,0,0,3.2,2.77l.51.38c1.8,1.39,2,1.64,2.32,3.71a2.39,2.39,0,0,1,0,1.34c-.13.19-.44.23-.92.28-1.48.28-3,.48-4.42.86l.11.5c1.45-.37,2.92-.57,4.38-.84.57-.07,1-.12,1.21-.48a2.68,2.68,0,0,0,.13-1.72C71.38,15,71,14.68,69.17,13.24Z"/><path class="cls-4" d="M73.17,12.61A6.2,6.2,0,0,1,74,11.48,26.37,26.37,0,0,0,75.7,9.41a4,4,0,0,0,.86-2.19V7C76,7,75.48,7,75,7a1,1,0,0,0-1,1.18l.52,0a.59.59,0,0,1,.12-.45A.64.64,0,0,1,75,7.55c.34,0,.69-.06,1-.06-.16,1.14-1.51,2.65-2.37,3.64-.22.27-.41.48-.55.67l-.48-5.17a.6.6,0,0,1,.14-.43A.64.64,0,0,1,73.19,6a71.65,71.65,0,0,1,12.6,0,.63.63,0,0,1,.43.21.53.53,0,0,1,.14.43l-.48,5.17-.56-.66c-.85-1-2.2-2.5-2.36-3.65.35,0,.7,0,1,.07a.57.57,0,0,1,.44.18.59.59,0,0,1,.12.45l.52,0a1.06,1.06,0,0,0-.24-.83A1.16,1.16,0,0,0,84,7C83.5,7,83,7,82.44,7l0,.26c0,1.4,1.49,3,2.53,4.27.18.21.4.49.57.72l.28.39.49,0,.6-6a1.06,1.06,0,0,0-.25-.8,1.24,1.24,0,0,0-.81-.4l-2-.15c-1.18-.08-2.77-.09-4.36-.14s-3.17.06-4.36.14l-2,.15a1.12,1.12,0,0,0-1.06,1.2l.59,6Z"/><path class="cls-4" d="M84.3,12.65l-.41-.5c-1.76-2.09-2.83-3.4-2.82-5h-.53L80.4,17v.26h.22c.95,0,1.9,0,2.84.11a.7.7,0,0,0,.55-.22.88.88,0,0,0,.27-.58,3.7,3.7,0,0,0-1.35-2.94c-.19-.2-.46-.45-.47-.55H82l-.06,1.74h.47l0-1,.19.18a3.19,3.19,0,0,1,1.21,2.51.32.32,0,0,1-.33.32s-.49-.05-1.06-.07l-1.57,0L81,9.11a18.35,18.35,0,0,0,2.49,3.39l.42.49c1.45,1.77,1.63,2,1.44,4.12a2.39,2.39,0,0,1-.33,1.3c-.17.16-.48.14-1,.1-1.52-.16-3.06-.14-4.6-.19s-3.07,0-4.6.19c-.48,0-.8.06-1-.1a2.44,2.44,0,0,1-.33-1.31C73.4,15,73.58,14.75,75,13l.41-.5A18.12,18.12,0,0,0,78,9.11l.16,7.63c-.88,0-1.76,0-2.63.1a.32.32,0,0,1-.23-.09.37.37,0,0,1-.1-.23A3.19,3.19,0,0,1,76.37,14l.18-.17,0,1h.47L77,13.06h-.49c0,.1-.28.35-.47.54a3.71,3.71,0,0,0-1.35,2.95.9.9,0,0,0,.27.58.69.69,0,0,0,.55.21s.71-.07,1.42-.07l1.42,0h.23V17l-.13-9.82h-.53c0,1.56-1.07,2.88-2.82,5l-.42.49c-1.46,1.78-1.76,2.2-1.54,4.5a2.72,2.72,0,0,0,.51,1.66c.31.3.71.27,1.28.22,1.51-.15,3-.13,4.56-.18s3,0,4.57.19c.56,0,1,.07,1.28-.23a2.69,2.69,0,0,0,.51-1.66C86.06,14.84,85.77,14.43,84.3,12.65Z"/><path class="cls-4" d="M116.23,23.27h0a6.18,6.18,0,0,1,1.39-.37c1.55-.28,3.78-.6,4.63-1.74l.15-.21-1.3-.93a1,1,0,0,0-1.55.25l.43.31a.61.61,0,0,1,.37-.28.62.62,0,0,1,.45.14l.85.61c-.85.82-2.81,1.09-4.11,1.35l-.86.19,2.85-4.34a.61.61,0,0,1,.38-.25.62.62,0,0,1,.48.09c1.73,1.18,3.44,2.4,5.06,3.72l.33-.41c-1.64-1.33-3.36-2.55-5.1-3.74a1.14,1.14,0,0,0-1.59.3l-3.26,5Z"/><path class="cls-4" d="M117.55,31.66c-.6-.46-1.18-.95-1.8-1.4l-1.86-1.32c-.39-.29-.68-.44-.7-.66s.14-.6.55-1.23c1.14-1.72,1.49-1.88,3.7-2.32l.63-.12a18.57,18.57,0,0,0,4.08-1.1l-4.64,6.07c-.68-.57-1.42-1-2.13-1.56a.32.32,0,0,1-.12-.21.38.38,0,0,1,.07-.25,3.15,3.15,0,0,1,2.51-1.19l.25,0-.58.79.39.27,1-1.4-.4-.28h0a2.41,2.41,0,0,1-.72.15A3.59,3.59,0,0,0,115,27.3a.92.92,0,0,0-.16.62.71.71,0,0,0,.3.52l1.24.9a10.17,10.17,0,0,1,.84.63l.38.3,6.18-8-.41-.33a4.21,4.21,0,0,1-2,1.31,22.16,22.16,0,0,1-3.31.82l-.62.12c-2.25.47-2.77.65-4,2.58-.5.78-.68,1.23-.63,1.6s.41.63.87,1l1.85,1.31c.61.44,1.19.93,1.79,1.39Z"/><path class="cls-4" d="M102.75,10.11a1.06,1.06,0,0,0-.07-.85,1.21,1.21,0,0,0-.69-.58c-2-.61-4-1.19-6-1.63l-.12.51c2,.43,4,1,6,1.61a.69.69,0,0,1,.37.32.59.59,0,0,1,0,.45l-1.62,4.93-.39-.78c-.6-1.19-1.61-2.87-1.5-4.06l1,.29a.6.6,0,0,1,.4.26.62.62,0,0,1,0,.46l.5.15a1.05,1.05,0,0,0-.06-.86,1.12,1.12,0,0,0-.71-.51l-1.54-.44-.07.25c-.36,1.39.78,3.31,1.52,4.71a5.7,5.7,0,0,1,.58,1.31v0l.47.16Z"/><path class="cls-4" d="M98.91,15.34l-.29-.57c-1.26-2.4-2-4-1.65-5.48l-.52-.12L94.09,19c1,.2,2,.52,3,.78a.74.74,0,0,0,.59-.09,1,1,0,0,0,.39-.52A3.61,3.61,0,0,0,97.36,16c-.15-.23-.36-.55-.34-.65h0l-.47-.13-.45,1.68.46.13.26-.95c.05.07,1.12,1.79.76,2.92a.33.33,0,0,1-.39.25l-1-.29c-.55-.16-1.18-.34-1.51-.4l1.84-7.41A18.82,18.82,0,0,0,98.18,15l.3.57c1,2,1.13,2.37.49,4.34-.23.71-.42,1.08-.61,1.19s-.49,0-1-.13c-1.45-.41-2.88-.84-4.35-1.14l-.12.5c1.46.3,2.88.73,4.32,1.13.54.16.92.31,1.29.09s.56-.61.86-1.5C100.13,17.91,100,17.39,98.91,15.34Z"/><path class="cls-4" d="M102.8,16.49a5.89,5.89,0,0,1,1.26-.65c1.46-.65,3.56-1.46,4.13-2.74l.1-.24c-.48-.23-1-.43-1.48-.62a1,1,0,0,0-1.45.61l.48.19a.62.62,0,0,1,.3-.35.59.59,0,0,1,.48,0l1,.39c-.65,1-2.51,1.73-3.71,2.26-.32.13-.58.25-.79.35l1.81-4.87a.54.54,0,0,1,.31-.32.62.62,0,0,1,.48,0A70.3,70.3,0,0,1,117.05,16a.62.62,0,0,1,.29.38.52.52,0,0,1-.06.44s-1.84,3.05-2.69,4.44l-.21-.83c-.33-1.27-.91-3.19-.54-4.31l.91.52a.62.62,0,0,1,.32.35.58.58,0,0,1-.09.45l.45.26a1.08,1.08,0,0,0,.15-.84,1.13,1.13,0,0,0-.58-.67c-.46-.27-.92-.55-1.4-.78l-.12.23c-.65,1.24,0,3.4.41,4.94.08.27.15.62.2.89s.09.48.09.48l.41.26,3.14-5.11a1.09,1.09,0,0,0,.13-.85,1.19,1.19,0,0,0-.55-.7l-1.72-1c-1-.61-2.47-1.29-3.87-2s-2.89-1.34-4-1.77L105.87,10a1.1,1.1,0,0,0-1.47.63l-2.05,5.63Z"/><path class="cls-4" d="M112.8,21.36l-.16-.63c-.65-2.66-1.06-4.29-.37-5.71l-.47-.23-4.39,8.78-.12.23.2.1c.84.43,1.69.84,2.5,1.33a.72.72,0,0,0,.59.05.92.92,0,0,0,.5-.41,3.66,3.66,0,0,0,.06-3.23,2.76,2.76,0,0,1-.18-.71h0l-.43-.22-.82,1.54.42.21.47-.86.09.24a3.22,3.22,0,0,1,0,2.8.33.33,0,0,1-.43.14l-.92-.53-1.4-.71,3.47-6.8a19.47,19.47,0,0,0,.76,4.14l.16.63c.55,2.21.59,2.53-.49,4.32-.39.64-.65,1-.86,1s-.5-.08-.92-.32c-1.31-.8-2.69-1.47-4-2.17s-2.78-1.29-4.21-1.82c-.45-.18-.75-.3-.83-.51a2.49,2.49,0,0,1,.27-1.32c.73-2,1-2.12,3.09-3.08l.58-.26a19.25,19.25,0,0,0,3.73-2l-3.17,6.94c-.8-.36-1.59-.75-2.41-1.05a.29.29,0,0,1-.17-.17.34.34,0,0,1,0-.26,3.22,3.22,0,0,1,2.18-1.74l.24-.08-.38.9.42.2.7-1.6-.44-.2h0c0,.09-.4.19-.66.29a3.71,3.71,0,0,0-2.49,2.06,1,1,0,0,0,0,.65.73.73,0,0,0,.41.43l.41.16c.25.1.58.23.9.39l1.29.58.21.1.11-.24,4.14-8.9-.48-.22c-.67,1.42-2.21,2.12-4.71,3.26l-.58.26c-2.09,1-2.54,1.21-3.34,3.39a2.69,2.69,0,0,0-.26,1.71c.15.4.53.55,1.06.76,1.42.52,2.79,1.19,4.18,1.81s2.71,1.36,4,2.15c.5.28.85.48,1.26.34s.68-.46,1.17-1.25C113.43,24.1,113.36,23.58,112.8,21.36Z"/><path class="cls-4" d="M137,44.79h0a5.25,5.25,0,0,1,1.38.27c1.55.41,3.7,1.07,4.95.42l.23-.12c-.24-.48-.51-.94-.78-1.4a1,1,0,0,0-1.52-.43l.26.45a.65.65,0,0,1,.46-.09.62.62,0,0,1,.35.32l.52.9c-1.12.37-3-.2-4.31-.53-.34-.1-.61-.17-.84-.22l4.44-2.68a.59.59,0,0,1,.45-.06.63.63,0,0,1,.38.3c.51.91,1.06,1.8,1.55,2.73l1.43,2.8.47-.23-1.44-2.81c-.5-.94-1.05-1.84-1.56-2.76a1.11,1.11,0,0,0-1.55-.42l-5.11,3.13C136.8,44.51,136.89,44.64,137,44.79Z"/><path class="cls-4" d="M134.54,52.93c-.7-1.35-1.36-2.73-2.15-4-.24-.42-.4-.69-.33-.91s.39-.48,1-.86c1.79-1.08,2.11-1,4.33-.49l.62.16a18.38,18.38,0,0,0,4.14.77L135.39,51c-.4-.78-.79-1.57-1.24-2.33a.28.28,0,0,1,0-.24.33.33,0,0,1,.16-.19,3.22,3.22,0,0,1,2.8,0l.24.08-.87.47.22.42,1.54-.82L138,48h0a2.39,2.39,0,0,1-.71-.18,3.66,3.66,0,0,0-3.23.06.94.94,0,0,0-.41.49.73.73,0,0,0,0,.6l.24.41c.15.25.33.59.49.93l.7,1.37,9-4.51-.24-.47c-1.41.69-3,.28-5.71-.38l-.62-.16c-2.23-.55-2.75-.63-4.72.58-.8.49-1.15.81-1.27,1.17s.07.76.35,1.25c.78,1.29,1.44,2.65,2.14,4Z"/><path class="cls-4" d="M130.52,27.1a1,1,0,0,0,.3-.8,1.18,1.18,0,0,0-.37-.81c-.74-.73-1.52-1.42-2.31-2.09s-1.57-1.37-2.4-2l-.32.4c.82.63,1.6,1.31,2.38,2s1.56,1.35,2.29,2.08a.62.62,0,0,1,0,.86l-3.6,3.74c0-.23,0-.52,0-.87,0-1.34-.18-3.31.42-4.31l.79.68a.58.58,0,0,1,.23.41.64.64,0,0,1-.18.43l.37.36a1.14,1.14,0,0,0,.33-.8,1.06,1.06,0,0,0-.41-.78l-1.21-1.05-.17.19c-.93,1.1-.7,3.28-.68,4.91a5.69,5.69,0,0,1,0,1.42h0l.36.34Z"/><path class="cls-4" d="M124.79,30.14v-.65c-.11-2.68-.08-4.44.89-5.65l-.41-.33-6.39,7.8,2.33,2a.75.75,0,0,0,.56.18.86.86,0,0,0,.57-.29,3.58,3.58,0,0,0,.77-3.12,2.1,2.1,0,0,1,0-.73h0L122.7,29l-1.13,1.32.35.31.65-.74c0,.09.25,2.08-.57,3a.32.32,0,0,1-.45,0l-2-1.71,4.88-5.87a17.12,17.12,0,0,0-.16,4.21l0,.64c0,2.3,0,2.62-1.45,4.13-.52.54-.85.8-1.07.82s-.45-.2-.8-.53c-.53-.54-1.13-1-1.69-1.5s-1.13-1-1.73-1.44l-.33.41c.6.44,1.16.93,1.72,1.42s1.15.95,1.67,1.48.71.68,1.14.64.77-.31,1.42-1C124.78,33,124.81,32.46,124.79,30.14Z"/><path class="cls-4" d="M127.78,32.88a5.63,5.63,0,0,1,1.43-.05c1.62,0,3.81.25,4.9-.68l.2-.17-1.05-1.21a1,1,0,0,0-1.59-.07l.36.37a.66.66,0,0,1,.43-.19.58.58,0,0,1,.41.24l.69.78c-1,.6-3,.45-4.32.43-.35,0-.63,0-.87,0l3.74-3.6a.58.58,0,0,1,.43-.16.69.69,0,0,1,.44.2,74.63,74.63,0,0,1,7.86,9.85.61.61,0,0,1,.1.47.56.56,0,0,1-.25.38l-4.35,2.85c0-.24.11-.52.19-.86.26-1.31.54-3.25,1.36-4.11l.6.85a.65.65,0,0,1,.15.46.61.61,0,0,1-.28.37l.3.42a1.06,1.06,0,0,0,.49-.7,1.1,1.1,0,0,0-.23-.84L138,36.58l-.21.15c-1.15.86-1.46,3.08-1.75,4.63-.06.28-.15.63-.23.9s-.13.47-.13.47l.27.42,5-3.25a1.08,1.08,0,0,0,.48-.71,1.2,1.2,0,0,0-.17-.88l-.3-.46-.84-1.17c-.34-.49-.75-1-1.18-1.66l-1.44-1.83c-1-1.28-2.05-2.43-2.81-3.34-.39-.46-.75-.8-1-1.06l-.38-.4a1.13,1.13,0,0,0-1.61-.07l-4.28,4.19Z"/><path class="cls-4" d="M134.71,41.58l.12-.62c.52-2.66.94-4.37,2.14-5.32l-.33-.41-7.76,6-.21.16.15.17c.6.73,1.11,1.53,1.67,2.29a.74.74,0,0,0,.53.29.92.92,0,0,0,.62-.16,3.57,3.57,0,0,0,1.43-2.86,2.49,2.49,0,0,1,.15-.73h0l-.28-.4-1.41,1,.28.38.79-.58,0,.26a3.17,3.17,0,0,1-1.19,2.51.34.34,0,0,1-.46-.06l-.62-.86c-.33-.47-.71-1-.93-1.26l6.06-4.63a19,19,0,0,0-1.1,4.07l-.12.63c-.44,2.21-.6,2.55-2.33,3.69-.63.41-1,.58-1.22.55s-.38-.3-.67-.69a63,63,0,0,0-5.73-7.19c-.34-.35-.56-.58-.54-.8s.27-.55.81-1.07c1.51-1.45,1.84-1.48,4.14-1.45l.64,0a17.06,17.06,0,0,0,4.21-.17l-5.86,4.89-1.72-2a.27.27,0,0,1-.08-.23.35.35,0,0,1,.12-.22,3.13,3.13,0,0,1,2.7-.61l.26,0-.74.65.31.36,1.32-1.14-.32-.37h0a2,2,0,0,1-.73,0,3.55,3.55,0,0,0-3.12.77.86.86,0,0,0-.29.57.75.75,0,0,0,.18.56l1.86,2.15.14.18.2-.17,7.59-6.23c-.1-.14-.22-.27-.34-.41-1.2,1-3,1-5.65.9h-.64c-2.32,0-2.84,0-4.49,1.62-.67.65-.94,1-1,1.43s.24.72.64,1.13a64.09,64.09,0,0,1,5.69,7.12c.32.46.53.82,1,.87s.82-.12,1.61-.63C134.06,44.35,134.24,43.83,134.71,41.58Z"/><path class="cls-4" d="M146.3,73.17h0a5.57,5.57,0,0,1,1.13.86,24.85,24.85,0,0,0,2.08,1.67,3.92,3.92,0,0,0,2.19.86h.26c0-.54,0-1.07-.08-1.6a1,1,0,0,0-1.19-1l0,.52a.53.53,0,0,1,.63.56c0,.34.07.69.07,1-1.15-.16-2.65-1.51-3.65-2.36-.26-.23-.48-.42-.66-.56l5.17-.48a.62.62,0,0,1,.43.14.63.63,0,0,1,.21.43c.2,2.09.24,4.18.28,6.27h.52c0-2.1-.08-4.21-.28-6.31a1.12,1.12,0,0,0-1.2-1.06l-6,.59Z"/><path class="cls-4" d="M140.58,79.45c-.06-1.52,0-3-.19-4.57,0-.48-.06-.8.09-1a2.44,2.44,0,0,1,1.31-.33c2.08-.19,2.35,0,4.12,1.45l.49.41a18,18,0,0,0,3.39,2.5l-7.63.16c0-.88,0-1.76-.1-2.63a.27.27,0,0,1,.08-.23.33.33,0,0,1,.23-.1,3.17,3.17,0,0,1,2.52,1.22l.18.18-1,0v.47l1.75-.06v-.49h0c-.1,0-.36-.28-.55-.47a3.7,3.7,0,0,0-2.94-1.35.94.94,0,0,0-.59.26.72.72,0,0,0-.21.56s.07.76.07,1.53l0,1.54,10.08-.14v-.53c-1.57,0-2.89-1.07-5-2.82l-.49-.42c-1.78-1.46-2.19-1.76-4.49-1.54a2.63,2.63,0,0,0-1.66.51c-.31.3-.28.71-.23,1.28.16,1.5.13,3,.19,4.53Z"/><path class="cls-4" d="M148.2,54.43a1,1,0,0,0,.62-.58,1.22,1.22,0,0,0,0-.9c-.39-1-.75-1.94-1.17-2.89l-1.29-2.85-.47.23,1.28,2.82c.43.94.77,1.92,1.16,2.88a.62.62,0,0,1,0,.48.54.54,0,0,1-.32.31l-4.87,1.81.35-.78c.53-1.21,1.29-3.07,2.26-3.72.14.32.26.65.39,1a.59.59,0,0,1,0,.48.62.62,0,0,1-.35.3l.19.49a1.12,1.12,0,0,0,.64-.58,1.15,1.15,0,0,0,0-.89l-.29-.74-.33-.73-.24.1c-1.28.57-2.09,2.67-2.74,4.13a5.64,5.64,0,0,1-.65,1.26h0c.06.15.12.3.17.46Z"/><path class="cls-4" d="M141.7,54.69l.26-.58c1.13-2.49,1.84-4,3.26-4.71l-.23-.48-9.13,4.27c.41.93.88,1.84,1.23,2.79a.73.73,0,0,0,.43.41,1,1,0,0,0,.65,0,3.7,3.7,0,0,0,2.06-2.49,2,2,0,0,1,.29-.67h0l-.2-.44-1.6.7.19.43.91-.39c0,.07-.72,2-1.82,2.43a.32.32,0,0,1-.43-.16s-.17-.46-.4-1l-.65-1.43,6.94-3.17a18.59,18.59,0,0,0-2,3.72l-.26.59c-1,2.07-1.12,2.35-3.07,3.08a2.43,2.43,0,0,1-1.33.27c-.21-.08-.33-.37-.5-.82-.52-1.41-1.18-2.76-1.79-4.13l-.47.23c.61,1.36,1.26,2.69,1.77,4.09.21.53.36.91.77,1a2.62,2.62,0,0,0,1.71-.26C140.49,57.23,140.74,56.79,141.7,54.69Z"/><path class="cls-4" d="M143.22,58.45a5.91,5.91,0,0,1,1.32.58c1.39.74,3.32,1.88,4.7,1.52l.25-.07-.44-1.54a1,1,0,0,0-1.36-.77l.14.5a.62.62,0,0,1,.46,0,.65.65,0,0,1,.27.39l.28,1c-1.18.11-2.86-.9-4.06-1.5L144,58.2l4.93-1.62a.55.55,0,0,1,.45,0,.69.69,0,0,1,.32.37,75,75,0,0,1,2.78,12.3.66.66,0,0,1-.12.47A.59.59,0,0,1,152,70l-5.15.66.54-.68c.83-1.07,1.91-2.7,3-3.11l.18,1a.69.69,0,0,1-.06.47.6.6,0,0,1-.41.21l.06.52a1.09,1.09,0,0,0,.76-.42,1,1,0,0,0,.16-.86l-.28-1.58-.26,0c-1.41.27-2.61,2.12-3.59,3.4-.17.23-.41.5-.59.71l-.32.37.06.48,5.95-.72a1.09,1.09,0,0,0,.73-.43,1.17,1.17,0,0,0,.22-.87l-.07-.54c0-.35-.11-.84-.22-1.43-.22-1.17-.46-2.74-.85-4.28-.18-.78-.35-1.55-.53-2.28s-.4-1.38-.56-2-.3-1-.39-1.38l-.18-.52a1.16,1.16,0,0,0-1.43-.76L143.08,58Z"/><path class="cls-4" d="M145.67,69.3l.39-.51c1.6-2.16,2.73-3.52,4.24-3.85l-.12-.52-9.61,2-.25.05.05.22.51,2.79a.78.78,0,0,0,.35.49.83.83,0,0,0,.62.13,3.54,3.54,0,0,0,2.54-2c.15-.24.34-.56.44-.59h0l-.09-.47-1.71.32.08.46,1-.17-.14.21a3.11,3.11,0,0,1-2.15,1.74.34.34,0,0,1-.39-.25l-.47-2.59,7.48-1.53a17.32,17.32,0,0,0-2.78,3.19l-.38.51c-1.4,1.81-1.65,2-3.71,2.32a2.48,2.48,0,0,1-1.35,0c-.19-.12-.23-.44-.29-.92a65.08,65.08,0,0,0-2-8.95c-.14-.46-.26-.76-.14-1s.48-.38,1.19-.62c2-.64,2.34-.54,4.35.49l.56.3a18.87,18.87,0,0,0,3.88,1.68l-7.41,1.85c-.19-.86-.46-1.69-.69-2.54a.29.29,0,0,1,0-.24.31.31,0,0,1,.2-.15,3.13,3.13,0,0,1,2.71.63l.21.13-.95.26.13.46,1.69-.45-.13-.47h0a2.13,2.13,0,0,1-.65-.34,3.61,3.61,0,0,0-3.13-.67,1,1,0,0,0-.52.4.73.73,0,0,0-.1.59l.39,1.36c.2.68.35,1.37.35,1.37l0,.23.25-.06,9.55-2.31-.12-.52c-1.49.35-3.09-.39-5.49-1.65l-.56-.29c-2.06-1-2.57-1.22-4.75-.49-.89.3-1.31.54-1.5.86s-.08.75.09,1.29a64.41,64.41,0,0,1,2,8.88c.07.56.12,1,.48,1.2a2.54,2.54,0,0,0,1.72.13C143.88,71.51,144.23,71.13,145.67,69.3Z"/><path class="cls-5" d="M133,105.22a59.92,59.92,0,0,0,5.86-25.78h-.51A59.46,59.46,0,0,1,132.52,105Z"/><path class="cls-5" d="M116.47,125.88A59.8,59.8,0,0,0,133,105.22l-.47-.23a59.29,59.29,0,0,1-16.37,20.49Z"/><path class="cls-5" d="M92.68,137.35A59.39,59.39,0,0,0,105.22,133a60.41,60.41,0,0,0,11.25-7.1l-.32-.4a60.73,60.73,0,0,1-11.15,7,59.56,59.56,0,0,1-12.44,4.33Z"/><path class="cls-5" d="M66.22,137.35a59.09,59.09,0,0,0,26.46,0l-.12-.5a58.8,58.8,0,0,1-26.22,0Z"/><path class="cls-5" d="M42.43,125.88A60.09,60.09,0,0,0,53.68,133a59.39,59.39,0,0,0,12.54,4.37l.12-.5a59.56,59.56,0,0,1-12.44-4.33,60.73,60.73,0,0,1-11.15-7Z"/><path class="cls-5" d="M25.91,105.22a59.8,59.8,0,0,0,16.52,20.66l.32-.4A59.29,59.29,0,0,1,26.38,105Z"/><path class="cls-5" d="M20,79.44a60.08,60.08,0,0,0,5.87,25.78l.47-.23a59.31,59.31,0,0,1-5.82-25.55Z"/><path class="cls-5" d="M25.91,53.67A60.07,60.07,0,0,0,20,79.44h.52A59.3,59.3,0,0,1,26.38,53.9Z"/><path class="cls-5" d="M42.43,33A59.8,59.8,0,0,0,25.91,53.67l.47.23A59.29,59.29,0,0,1,42.75,33.41Z"/><path class="cls-5" d="M66.22,21.54a59.39,59.39,0,0,0-12.54,4.37A60.09,60.09,0,0,0,42.43,33l.32.4a60.73,60.73,0,0,1,11.15-7A59.56,59.56,0,0,1,66.34,22Z"/><path class="cls-5" d="M92.68,21.54a59.09,59.09,0,0,0-26.46,0l.12.5a58.8,58.8,0,0,1,26.22,0Z"/><path class="cls-5" d="M116.47,33a60.41,60.41,0,0,0-11.25-7.1,59.39,59.39,0,0,0-12.54-4.37l-.12.5A59.56,59.56,0,0,1,105,26.37a60.73,60.73,0,0,1,11.15,7Z"/><path class="cls-5" d="M133,53.67A59.8,59.8,0,0,0,116.47,33l-.32.4A59.29,59.29,0,0,1,132.52,53.9Z"/><path class="cls-5" d="M138.85,79.44A59.91,59.91,0,0,0,133,53.67l-.47.23a59.45,59.45,0,0,1,5.82,25.54Z"/><text class="cls-6" transform="translate(33.49 77.21) rotate(-83.58)">F</text><text class="cls-6" transform="translate(34.09 71.53) rotate(-76.55)">a</text><text class="cls-6" transform="matrix(0.36, -0.93, 0.93, 0.36, 35.44, 65.74)">k</text><text class="cls-6" transform="matrix(0.47, -0.88, 0.88, 0.47, 37.65, 60.03)">e</text><text class="cls-6" transform="translate(40.34 55.15) rotate(-56.67)"> </text><text class="cls-6" transform="matrix(0.65, -0.76, 0.76, 0.65, 41.59, 52.91)">G</text><text class="cls-6" transform="matrix(0.76, -0.65, 0.65, 0.76, 47.09, 46.51)">o</text><text class="cls-6" transform="matrix(0.83, -0.56, 0.56, 0.83, 51.5, 42.69)">v</text><text class="cls-6" transform="translate(55.8 39.75) rotate(-27.39)">e</text><text class="cls-6" transform="translate(60.71 37.21) rotate(-20.73)">r</text><text class="cls-6" transform="translate(65.6 35.13) rotate(-10.84)">m</text><text class="cls-6" transform="translate(75.69 33.37) rotate(-1.19)">e</text><text class="cls-6" transform="translate(81.18 33.21) rotate(6.24)">n</text><text class="cls-6" transform="translate(87.59 33.98) rotate(12.7)">t</text><text class="cls-6" transform="translate(91.38 34.85) rotate(16.79)"> </text><text class="cls-6" transform="translate(93.86 35.48) rotate(22.64)">A</text><text class="cls-6" transform="matrix(0.87, 0.5, -0.5, 0.87, 100.09, 38.12)">s</text><text class="cls-6" transform="matrix(0.81, 0.59, -0.59, 0.81, 104.49, 40.65)">s</text><text class="cls-6" transform="translate(108.6 43.62) rotate(43.16)">o</text><text class="cls-6" transform="translate(112.95 47.71) rotate(50.08)">c</text><text class="cls-6" transform="translate(116.28 51.74) rotate(55.53)">i</text><text class="cls-6" transform="matrix(0.48, 0.88, -0.88, 0.48, 118.31, 54.57)">a</text><text class="cls-6" transform="translate(121.14 59.87) rotate(67.66)">t</text><text class="cls-6" transform="matrix(0.3, 0.95, -0.95, 0.3, 122.61, 63.45)">i</text><text class="cls-6" transform="translate(123.73 66.74) rotate(78.21)">o</text><text class="cls-6" transform="translate(124.98 72.57) rotate(85.82)">n</text><text class="cls-7" transform="translate(30.51 93.77) rotate(68.48)">D</text><text class="cls-7" transform="translate(33.97 102.09) rotate(60.25)">e</text><text class="cls-7" transform="matrix(0.59, 0.8, -0.8, 0.59, 36.7, 106.83)">p</text><text class="cls-7" transform="translate(40.48 111.86) rotate(46.75)">a</text><text class="cls-7" transform="translate(44.36 115.91) rotate(41.09)">r</text><text class="cls-7" transform="translate(47.66 118.75) rotate(36.64)">t</text><text class="cls-7" transform="translate(50.65 121.15) rotate(29.21)">m</text><text class="cls-7" transform="translate(59.03 125.61) rotate(20.78)">e</text><text class="cls-7" transform="matrix(0.97, 0.24, -0.24, 0.97, 64.02, 127.5)">n</text><text class="cls-7" transform="translate(70.16 128.96) rotate(8.48)">t</text><text class="cls-7" transform="translate(73.62 129.46) rotate(4.77)"> </text><text class="cls-7" transform="matrix(1, -0.01, 0.01, 1, 76.78, 129.77)">o</text><text class="cls-7" transform="translate(82.69 129.65) rotate(-5.63)">f</text><text class="cls-7" transform="translate(87.64 129.06) rotate(-11.05)"> </text><text class="cls-7" transform="matrix(0.97, -0.25, 0.25, 0.97, 90.64, 128.47)">t</text><text class="cls-7" transform="translate(94.19 127.58) rotate(-20.33)">h</text><text class="cls-7" transform="translate(100.17 125.31) rotate(-27.01)">e</text><text class="cls-7" transform="matrix(0.85, -0.53, 0.53, 0.85, 104.76, 122.9)"> </text><text class="cls-7" transform="translate(107.38 121.29) rotate(-35.87)">I</text><text class="cls-7" transform="matrix(0.74, -0.67, 0.67, 0.74, 110.94, 118.74)">n</text><text class="cls-7" transform="matrix(0.68, -0.74, 0.74, 0.68, 115.56, 114.49)">t</text><text class="cls-7" transform="matrix(0.61, -0.79, 0.79, 0.61, 118.01, 111.83)">e</text><text class="cls-7" transform="translate(121.18 107.64) rotate(-57.91)">r</text><text class="cls-7" transform="matrix(0.47, -0.88, 0.88, 0.47, 123.46, 103.94)">i</text><text class="cls-7" transform="translate(124.99 101.16) rotate(-67.19)">o</text><text class="cls-7" transform="translate(127.24 95.64) rotate(-73.08)">r</text><path class="cls-8" d="M52.7,65.56v.13c0,30.52,26.18,45.66,26.18,45.66s26.18-15,26.18-45.66v-.13Z"/><path class="cls-3" d="M105.63,65.52H52.15V50.78S61.69,47.54,79,47.54s26.64,3.24,26.64,3.24Z"/><path class="cls-9" d="M52.68,60.75l0,4.81v.13c0,30.52,26.18,45.66,26.18,45.66s26.18-15,26.18-45.66v-.13l0-4.28"/><path class="cls-10" d="M97.15,91.35a3.87,3.87,0,0,1-.86-.11,7,7,0,0,1-2-.73c-.9-.47-1.29-.83-1.43-1.36a.91.91,0,0,1,0-.79.52.52,0,0,1,.42-.18,2.22,2.22,0,0,1,.85.25,9,9,0,0,0,3.7.95l1.15.06,0,.47a1.43,1.43,0,0,1-.87,1.17,2,2,0,0,1-1,.27Z"/><path class="cls-4" d="M93.36,88.43a1.85,1.85,0,0,1,.74.23,9.3,9.3,0,0,0,3.8,1l.9.05v.22h0a1.23,1.23,0,0,1-.75,1,1.72,1.72,0,0,1-.89.24,3.93,3.93,0,0,1-.81-.1,6.83,6.83,0,0,1-1.9-.72c-.84-.43-1.18-.74-1.3-1.2s-.06-.65.22-.65m0-.5h0a.74.74,0,0,0-.62.28,1.15,1.15,0,0,0-.08,1c.18.69.73,1.1,1.55,1.52a6.84,6.84,0,0,0,2,.75,3.79,3.79,0,0,0,.91.12,2.24,2.24,0,0,0,1.14-.3,1.67,1.67,0,0,0,1-1.37v-.24l0-.49-.49,0-.91-.05a8.89,8.89,0,0,1-3.61-.92,2.2,2.2,0,0,0-1-.28Z"/><path class="cls-11" d="M98.24,89.4a4.76,4.76,0,0,1-1.07-.11s-3-.81-3.26-1.39a.69.69,0,0,1,0-.45l.13-.35h6l-.06.76a1.57,1.57,0,0,1-.81,1.39A2.59,2.59,0,0,1,98.24,89.4Z"/><path class="cls-4" d="M99.83,87.35l0,.49h0A1.35,1.35,0,0,1,99.11,89a2.3,2.3,0,0,1-.87.12,3.88,3.88,0,0,1-1-.11,8.73,8.73,0,0,1-3.1-1.23.48.48,0,0,1,0-.27l.07-.19h5.58m.53-.5H93.9l-.12.32-.07.19a1,1,0,0,0,0,.63c.25.65,2.7,1.34,3.44,1.54a4.66,4.66,0,0,0,1.13.12,2.7,2.7,0,0,0,1.11-.18,1.82,1.82,0,0,0,.94-1.59l0-.49,0-.54Z"/><path class="cls-12" d="M80.53,90.86l.39-.2a44.19,44.19,0,0,0,3.78-3c0-.07,0-.09-.08-.54-.31-1.23-.25-1.91.21-2.45A3,3,0,0,1,86.14,84a2.87,2.87,0,0,1,1-.19H90.5c4.07,0,4.07,0,4.07.3,0,.11,0,.36-1.08,1.42a4.69,4.69,0,0,1-1.31,1,3,3,0,0,1-1.62.34c-.55,0-1.3.06-1.67.06h-.57l-1.09,1.17c-.83.9-2,2-4.09,3.89-1.07,1-2,1.83-2.52,2.31l-.49.47Z"/><path class="cls-4" d="M90.51,84c2.09,0,3.81,0,3.81,0s-.38.62-1,1.24a4.48,4.48,0,0,1-1.24,1,2.81,2.81,0,0,1-1.52.31c-.55,0-1.29.06-1.66.06h-.68l-1.16,1.25c-.83.89-2,2-4.07,3.87h0c-1.08,1-2,1.84-2.53,2.32L80.77,91l.26-.14a36.47,36.47,0,0,0,3.88-3c.08-.17.08-.25,0-.73-.3-1.13-.25-1.76.15-2.22a2.66,2.66,0,0,1,1.21-.69,2.81,2.81,0,0,1,1-.17h3.32m0-.5H87.19a3.42,3.42,0,0,0-1.14.2,3.09,3.09,0,0,0-1.4.83,2.82,2.82,0,0,0-.27,2.67c0,.08.07.27.08.36a42.3,42.3,0,0,1-3.65,2.86l-.27.13-.24.13,0,.27L80,94.05l-.14,1.35,1-.93c.53-.51,1.49-1.39,2.52-2.32,2.07-1.86,3.26-3,4.1-3.9l1-1.1h.46c.38,0,1.13,0,1.68-.06a3.22,3.22,0,0,0,1.72-.36,4.87,4.87,0,0,0,1.37-1.06c1.15-1.14,1.16-1.43,1.16-1.6,0-.55,0-.55-4.31-.55Z"/><path class="cls-13" d="M94.58,97.26a1.52,1.52,0,0,1-.94-.3,19,19,0,0,1-2.41-1.69c-1.45-1.16-2.16-1.92-1.78-2.62a.48.48,0,0,1,.44-.27A2.06,2.06,0,0,1,91,93l.91.79a5.71,5.71,0,0,0,1.33.83,12.91,12.91,0,0,0,2.15.92h0c.39,0,.39.35.39.54a1.17,1.17,0,0,1-.56,1,1.69,1.69,0,0,1-.66.13Z"/><path class="cls-4" d="M89.89,92.63a2,2,0,0,1,1,.6l.9.79a5.89,5.89,0,0,0,1.39.87,12.34,12.34,0,0,0,2.26.94c.12,0,.14,0,.14.29a.93.93,0,0,1-.43.79,1.62,1.62,0,0,1-.54.1h0a1.32,1.32,0,0,1-.81-.27,19.25,19.25,0,0,1-2.37-1.67c-1.52-1.21-2-1.83-1.72-2.3a.23.23,0,0,1,.22-.14m0-.5h0a.72.72,0,0,0-.66.4c-.51.94.53,1.89,1.84,2.93a19.65,19.65,0,0,0,2.44,1.72,1.81,1.81,0,0,0,1.06.33,2,2,0,0,0,.81-.16,1.43,1.43,0,0,0,.69-1.23.81.81,0,0,0-.19-.62.64.64,0,0,0-.45-.17,19,19,0,0,1-2-.89,5.28,5.28,0,0,1-1.28-.8l-.9-.79a2.22,2.22,0,0,0-1.32-.72Z"/><path class="cls-14" d="M92.36,86.76l.84-.63a8.58,8.58,0,0,0,1.56-1.69l.28-.53h4.2c4.29,0,4.29,0,4.29.34s-1.29,1.62-1.84,2c-.81.53-1,.55-3.84.55Z"/><path class="cls-4" d="M99.31,84.16c3.29,0,4,0,4,.09,0,.27-1,1.32-1.72,1.76s-.71.51-3.69.51H93.1l.25-.18h0A8.26,8.26,0,0,0,95,84.55l.21-.39h4.12m0-.5H94.88l-.14.26-.2.4a8.26,8.26,0,0,1-1.49,1.61l-.25.18-1.19.9h6.26c2.91,0,3.09,0,3.91-.55l0,0c.45-.29,2-1.53,2-2.18s0-.59-4.47-.59Z"/><path class="cls-15" d="M86.72,103.44a1.71,1.71,0,0,1-.93-.2c-.69-.36-1.32-1.19-2.11-2.77a6.87,6.87,0,0,1-.84-2.67c0-.49,0-.8.16-1a.68.68,0,0,1,.51-.18c.81,0,1,.34,1.62,1.78a13.74,13.74,0,0,0,.69,1.39c.16.26.37.6.46.78a12.39,12.39,0,0,0,.89,1.1c.8.9.8.94.8,1s0,.17-.34.45a1,1,0,0,1-.83.28Z"/><path class="cls-4" d="M83.51,96.87c.62,0,.74.14,1.39,1.63a14.55,14.55,0,0,0,.71,1.43l.46.76h0a9,9,0,0,0,.91,1.14c.4.46.74.86.74.88a1,1,0,0,1-.25.27.76.76,0,0,1-.67.21h-.08a1.54,1.54,0,0,1-.82-.17,5.85,5.85,0,0,1-2-2.66,6.74,6.74,0,0,1-.81-2.58c-.06-.73,0-.91.42-.91m0-.5a.92.92,0,0,0-.69.26,1.5,1.5,0,0,0-.23,1.18,7.25,7.25,0,0,0,.86,2.77c.83,1.66,1.48,2.49,2.22,2.88a2,2,0,0,0,1,.23h.08a1.21,1.21,0,0,0,1-.34c.31-.27.42-.43.42-.64s0-.23-.87-1.21a11.47,11.47,0,0,1-.85-1.06L86,99.66c-.12-.2-.42-.8-.67-1.36-.61-1.4-.84-1.93-1.85-1.93Z"/><path class="cls-16" d="M84.14,104.69a2.07,2.07,0,0,1-.8-.15c-.67-.32-1.07-.93-1.72-2.63a12.94,12.94,0,0,1-.68-3.43c0-1,.54-1.08.77-1.08l.22,0A2,2,0,0,1,83,98.94a14,14,0,0,0,1.4,3.35,6.9,6.9,0,0,0,.64.73c.54.53.54.7.54.76,0,.34-.52.73-.87.83a2.29,2.29,0,0,1-.6.08Z"/><path class="cls-4" d="M81.71,97.65a.44.44,0,0,1,.16,0,1.69,1.69,0,0,1,.91,1.27,13.51,13.51,0,0,0,1.45,3.5,6.37,6.37,0,0,0,.67.76,2,2,0,0,1,.46.58c0,.17-.39.51-.69.59a1.79,1.79,0,0,1-.53.07,1.77,1.77,0,0,1-.69-.13h0c-.61-.28-1-.86-1.59-2.49a12.37,12.37,0,0,1-.67-3.34c0-.54.18-.83.52-.83m0-.5c-.49,0-1,.35-1,1.33a12.85,12.85,0,0,0,.7,3.52c.59,1.57,1,2.38,1.84,2.76a2.14,2.14,0,0,0,.91.18,2.36,2.36,0,0,0,.67-.09c.37-.1,1-.55,1-1.07,0-.12,0-.33-.61-.94a6.83,6.83,0,0,1-.61-.69,13.91,13.91,0,0,1-1.36-3.21A2.11,2.11,0,0,0,82,97.18a1.24,1.24,0,0,0-.27,0Z"/><path class="cls-17" d="M95.74,95.31a2.48,2.48,0,0,1-1.5-.43A11.61,11.61,0,0,1,91,92.51c-.27-.37-.56-.89-.38-1.25a.51.51,0,0,1,.49-.27c.32,0,.56.15,2.08,1.17a7,7,0,0,0,3.17,1.39c.41,0,.68.07.73.43a1.56,1.56,0,0,1-.47,1.14A1.3,1.3,0,0,1,95.74,95.31Z"/><path class="cls-4" d="M91.14,91.24c.24,0,.46.13,1.94,1.12a7,7,0,0,0,3.29,1.43c.44,0,.49.07.51.22a1.34,1.34,0,0,1-.39.91h0c-.14.12-.28.14-.75.14a2.23,2.23,0,0,1-1.39-.41,11.4,11.4,0,0,1-3.12-2.29c-.48-.66-.51-1.12-.09-1.12m0-.5a.76.76,0,0,0-.71.41c-.19.38-.06.88.4,1.5a11.81,11.81,0,0,0,3.29,2.45,2.71,2.71,0,0,0,1.62.46,1.53,1.53,0,0,0,1.06-.24,1.8,1.8,0,0,0,.57-1.38c-.08-.55-.52-.6-1-.64A6.66,6.66,0,0,1,93.36,92c-1.54-1-1.81-1.21-2.22-1.21Z"/><path class="cls-18" d="M80.46,98.23a.56.56,0,0,1-.38-.12c-.1-.11-.25-.25.13-1.93a9.9,9.9,0,0,0,.24-1.26c0-.35,0-.35,4.1-4.09l4.08-3.73h2.5c2.28,0,2.3,0,2.4.2l0,.09v.18c-.06.19-.25.34-.75.59l-.29.14v.29c0,.68-.14.81-.78.94l-.1,0-.12,1-.51.07c-.46.07-.46.07-.53.77a1.15,1.15,0,0,1-.24.68,1.68,1.68,0,0,1-.71.19l-.26,0a3.27,3.27,0,0,1-.18.47c-.23.52-.58.62-1.19.62h-.16v.34q0,.44-.18.54a2.47,2.47,0,0,1-.73.16l-.4.06-.07.23a.92.92,0,0,1-1.08.85c-.47.07-.47.07-.72.45s-.34.38-.88.42a.87.87,0,0,0-.86.43,2,2,0,0,1-.47.44l-.34.22-.49-.21-.32-.1s0,.08-.06.15C80.92,98,80.81,98.23,80.46,98.23Z"/><path class="cls-4" d="M91.13,87.35a11.6,11.6,0,0,1,2.18.08c.07.11-.11.26-.6.5l-.44.22,0,.46c0,.51,0,.56-.58.67l-.28.06-.05.49-.06.5-.33,0c-.61.08-.65.13-.74,1a1.06,1.06,0,0,1-.15.52,1.52,1.52,0,0,1-.57.13c-.39,0-.46,0-.48.17a2,2,0,0,1-.17.47c-.16.37-.37.47-1,.47-.36,0-.41.06-.41.6,0,.16,0,.31-.07.33a3.36,3.36,0,0,1-.62.13l-.57.08-.11.38a1.75,1.75,0,0,1-.2.49,1.88,1.88,0,0,1-.67.19c-.6.08-.59.07-.91.58-.15.23-.17.24-.68.28a1.11,1.11,0,0,0-1,.53,1.6,1.6,0,0,1-.4.38l-.23.15-.38-.16a1.54,1.54,0,0,0-.44-.12h0a.59.59,0,0,0-.22.3c-.25.62-.31.71-.47.71a.34.34,0,0,1-.2,0c-.1-.1,0-.69.2-1.7.13-.58.24-1.17.25-1.3s.18-.41,4-3.91l4-3.66h2.4m0-.5h-2.6l-.14.13-4,3.66c-4.17,3.81-4.17,3.81-4.17,4.27,0,.09-.1.6-.24,1.2-.36,1.55-.31,1.92-.06,2.17a.75.75,0,0,0,.55.19c.5,0,.67-.38.91-1l.07,0,.38.16.24.1.21-.14.24-.15A2.28,2.28,0,0,0,83,97c.2-.27.24-.3.68-.33s.78-.08,1.06-.51a1.62,1.62,0,0,1,.21-.3l.32-.05c.77-.12.93-.28,1-.34a2.16,2.16,0,0,0,.33-.7l0-.07.24,0c.66-.09.75-.15.81-.19s.31-.19.31-.76v-.1a1.28,1.28,0,0,0,1.33-.77s.08-.18.14-.34h.09a1.88,1.88,0,0,0,.85-.24c.06-.06.26-.22.33-.85a3.92,3.92,0,0,1,.07-.51l.24,0,.32,0,.39,0,0-.39.06-.5,0-.13c.73-.16.93-.44.9-1.18v-.13l.15-.07c.5-.24.79-.44.88-.74a.6.6,0,0,0-.07-.47c-.17-.29-.19-.32-2.61-.32Z"/><path class="cls-19" d="M96.82,93.42a4.73,4.73,0,0,1-.88-.1,13,13,0,0,1-2.6-1.26,11.07,11.07,0,0,1-.91-.74c-.51-.47-.6-.55-.57-1,0-.18,0-.64.48-.64a1.56,1.56,0,0,1,.56.16,10.55,10.55,0,0,1,1.54.77,5.65,5.65,0,0,0,2.31.78c.71.13,1.2.2,1.27.21h0a.35.35,0,0,1,.29.12.45.45,0,0,1,0,.38,1.63,1.63,0,0,1-.59,1,1.24,1.24,0,0,1-.87.26Z"/><path class="cls-4" d="M92.34,90a1.38,1.38,0,0,1,.46.14,10,10,0,0,1,1.5.75,6,6,0,0,0,2.4.81c.65.12,1.24.22,1.31.22s.14,0,.11.2a1.47,1.47,0,0,1-.5.88,1,1,0,0,1-.72.22h-.08a3.61,3.61,0,0,1-.82-.1,12.45,12.45,0,0,1-2.52-1.22,8.81,8.81,0,0,1-.89-.72c-.5-.46-.5-.47-.48-.78s.07-.4.23-.4m0-.5c-.25,0-.68.11-.73.87,0,.55.13.71.65,1.18a10.09,10.09,0,0,0,.95.77,13.52,13.52,0,0,0,2.67,1.29,4.57,4.57,0,0,0,.94.11h.09a1.47,1.47,0,0,0,1-.31,1.9,1.9,0,0,0,.69-1.18.69.69,0,0,0-.11-.59.59.59,0,0,0-.49-.21l-1.22-.21a5.55,5.55,0,0,1-2.21-.73A8.18,8.18,0,0,0,93,89.64a1.56,1.56,0,0,0-.66-.19Z"/><path class="cls-20" d="M81.31,105.43a1.41,1.41,0,0,1-.65-.19,1.66,1.66,0,0,1-1-1.55,39.19,39.19,0,0,1,.11-4.87.45.45,0,0,1,.4-.26.62.62,0,0,1,.54.42,3.28,3.28,0,0,1,.28,1.2,15.36,15.36,0,0,0,.82,2.71,11.17,11.17,0,0,0,.7,1c.5.66.65.86.34,1.13a3.45,3.45,0,0,1-1.38.36Z"/><path class="cls-4" d="M80.2,98.81c.12,0,.24.09.31.27h0a3.2,3.2,0,0,1,.26,1.11,14.53,14.53,0,0,0,.85,2.81,10,10,0,0,0,.72,1.08c.49.65.51.68.38.79a3.62,3.62,0,0,1-1.26.3h-.15a1.11,1.11,0,0,1-.54-.16,1.42,1.42,0,0,1-.83-1.35A43.77,43.77,0,0,1,80,98.94a.2.2,0,0,1,.18-.13m0-.5a.71.71,0,0,0-.63.4,37.06,37.06,0,0,0-.13,5,1.88,1.88,0,0,0,1.11,1.74,1.54,1.54,0,0,0,.76.22h.22c1.19-.15,1.42-.35,1.51-.42.5-.42.2-.81-.3-1.47-.28-.38-.58-.84-.68-1a16,16,0,0,1-.79-2.59,3.83,3.83,0,0,0-.3-1.3.86.86,0,0,0-.77-.57Z"/><path class="cls-21" d="M105.73,91.7c-6.94,0-6.94,0-6.94-.28a7.87,7.87,0,0,1,.56-1.53l.25-.43h7.78c7.89,0,7.89,0,7.89.33s-.46.86-.77,1.08a6.58,6.58,0,0,1-1.22.55l-.78.27Z"/><path class="cls-4" d="M107.38,89.71c5.57,0,7.64,0,7.64.08a1.69,1.69,0,0,1-.66.87,6.26,6.26,0,0,1-1.16.52l-.78.27h-6.69c-3.68,0-6.69,0-6.69,0A8.72,8.72,0,0,1,99.57,90l.17-.3h7.64m0-.5H99.46l-.15.25-.17.3a7.72,7.72,0,0,0-.6,1.66c0,.5.39.51,1,.51H112.5l.08,0,.78-.27a6.12,6.12,0,0,0,1.28-.58,2,2,0,0,0,.88-1.28c0-.54-.17-.54-2.22-.56l-5.92,0Z"/><path class="cls-22" d="M97.47,93.78a.64.64,0,0,1,.36-.52,1.16,1.16,0,0,0,.28-.33,4.3,4.3,0,0,1,.38-.64l.29-.39h14.76l-.11.49a1.75,1.75,0,0,1-.21.46,7.45,7.45,0,0,1-2.49,1.24,65.85,65.85,0,0,1-6.77.11H97.47Z"/><path class="cls-4" d="M113.23,92.15l0,.19a1.69,1.69,0,0,1-.17.36,7.62,7.62,0,0,1-2.34,1.15c-.4.08-1.58.1-6.72.1H97.72v-.17c0-.11.08-.21.24-.31a1.15,1.15,0,0,0,.37-.44,4.67,4.67,0,0,1,.36-.59l.21-.29h14.33m-14.33,0h0m14.95-.5H98.65l-.15.2-.21.3a4.3,4.3,0,0,0-.41.67.75.75,0,0,1-.19.23.85.85,0,0,0-.47.73v.67H104a66.23,66.23,0,0,0,6.82-.11A7.42,7.42,0,0,0,113.42,93a1.72,1.72,0,0,0,.25-.53l0-.21.13-.6Z"/><path class="cls-23" d="M102.32,86.09a7.15,7.15,0,0,0,1-.91c.11-.14.41-.47.67-.73l.52-.54h13.39v.39c0,.85-1.32,1.8-2.6,2.22-.39.13-.77.14-6.75.16h-7Z"/><path class="cls-4" d="M117.66,84.16v.14c0,.64-1.11,1.55-2.43,2-.35.12-.78.13-6.67.15h-6.29l.2-.15h0a6.59,6.59,0,0,0,1-1c.11-.14.41-.46.66-.72l.45-.46h13m.5-.5H104.42l-.15.15-.45.47c-.25.25-.55.58-.68.74a6.38,6.38,0,0,1-1,.87l-.2.16-1.18.9h7.77c6.14,0,6.39,0,6.83-.17,1.34-.45,2.77-1.46,2.77-2.46v-.64Z"/><path class="cls-24" d="M96.08,96.63v-.42c0-.18.11-.39.71-1l.72-.77h6.65c6.46,0,6.46,0,6.46.28s0,.16-.85.76a6.3,6.3,0,0,1-2.19,1.11c-.18,0-1,.08-5.83.08Z"/><path class="cls-4" d="M104.24,94.65c3.39,0,6.13,0,6.13,0a8.54,8.54,0,0,1-.75.56,6.43,6.43,0,0,1-2.09,1.07c-.25,0-2.12.07-5.78.07H96.33v-.17h0c0-.12.19-.38.65-.87l.64-.69h6.62m0-.5H97.4l-.15.16-.64.69c-.6.65-.78.92-.78,1.21v.67h5.92c4.8,0,5.66,0,5.88-.08a6.72,6.72,0,0,0,2.28-1.15c.85-.6,1-.68,1-1,0-.5-.41-.51-1-.51h-5.65Z"/><path class="cls-25" d="M103.68,89.4c-3.85,0-3.85,0-3.85-.33,0,0,0-.16.47-1l.5-.92,11.51,0c4.42,0,4.42,0,4.42.33s-.89,1.12-1.18,1.29a5.83,5.83,0,0,1-.94.44l-.51.19-7,0Z"/><path class="cls-4" d="M112.33,87.36a29.87,29.87,0,0,1,4.15.08,3.39,3.39,0,0,1-1.06,1.08,6.32,6.32,0,0,1-.9.42l-.51.18-7,0h-3.4a22.6,22.6,0,0,1-3.57-.08h0a6.39,6.39,0,0,1,.44-.88l.43-.8,7.76,0h3.62m0-.5h-3.62l-7.76,0h-.3l-.14.26-.43.8c-.5.9-.5,1-.5,1.12,0,.53.49.55,1.22.56l2.85,0h3.4l7,0h.08l.09,0,.5-.18a7.66,7.66,0,0,0,1-.46c.13-.08,1.3-.94,1.3-1.51s0-.58-4.65-.58Z"/><path class="cls-26" d="M95.49,99.76c-1.7,0-1.84-.05-1.84-.34a2.4,2.4,0,0,1,.27-.7,4.35,4.35,0,0,1,1.43-1.64l.38-.25h11.36l-.61.63a6.82,6.82,0,0,1-1.87,1.09,14.14,14.14,0,0,1-3.84,1c-1.28.14-3.69.22-5.28.22Z"/><path class="cls-4" d="M106.5,97.08l-.2.21a6.68,6.68,0,0,1-1.78,1,14.09,14.09,0,0,1-3.78,1c-1.24.13-3.65.21-5.26.21a6.07,6.07,0,0,1-1.58-.09h0a3.29,3.29,0,0,1,.24-.59,4.26,4.26,0,0,1,1.35-1.54l.31-.21h10.7m1.17-.5h-12l-.13.08-.31.21a4.81,4.81,0,0,0-1.52,1.74c-.29.61-.29.73-.29.81,0,.52.55.55.92.57s.69,0,1.16,0c1.6,0,4-.08,5.32-.22a14.24,14.24,0,0,0,3.9-1,7,7,0,0,0,2-1.14l.21-.22.8-.84Z"/><path class="cls-27" d="M88.52,102.22a1.46,1.46,0,0,1-.38,0c-.4-.12-.54-.24-.94-.73a12.54,12.54,0,0,1-1.39-2.14A5.91,5.91,0,0,1,85,97.42a2,2,0,0,1,0-1.37.53.53,0,0,1,.5-.26,1.21,1.21,0,0,1,.63.21,6.63,6.63,0,0,1,1.36,2,6.34,6.34,0,0,0,1.6,2c1,1,1,1.16,1,1.26a.89.89,0,0,1-.55.73,2.14,2.14,0,0,1-1,.26Z"/><path class="cls-4" d="M85.43,96a.83.83,0,0,1,.49.17,6.54,6.54,0,0,1,1.28,1.85,6.59,6.59,0,0,0,1.64,2.09h0a5.49,5.49,0,0,1,1,1.08c0,.38-.7.74-1.28.74a1,1,0,0,1-.31,0c-.33-.09-.42-.17-.82-.65A13,13,0,0,1,86,99.17a5.7,5.7,0,0,1-.8-1.81,1.85,1.85,0,0,1-.07-1.19.3.3,0,0,1,.28-.13m0-.5h0a.8.8,0,0,0-.72.39,2.17,2.17,0,0,0,0,1.56,6.13,6.13,0,0,0,.85,1.93A13.32,13.32,0,0,0,87,101.6a1.9,1.9,0,0,0,1.07.81,1.63,1.63,0,0,0,.45.06c.74,0,1.78-.47,1.78-1.24,0-.19,0-.34-1.11-1.44a6,6,0,0,1-1.54-2,7.14,7.14,0,0,0-1.45-2,1.41,1.41,0,0,0-.77-.25Z"/><path class="cls-28" d="M90.93,100.93a1.88,1.88,0,0,1-.76-.18,3.63,3.63,0,0,1-1.56-1.32,33.76,33.76,0,0,1-2-3A2.49,2.49,0,0,1,86.51,95a.57.57,0,0,1,.53-.44c.4,0,.92.39,2.5,2.41a7.46,7.46,0,0,0,1.74,1.76c1.06.62,1.06.88,1.06,1a1.81,1.81,0,0,1-.82,1.06A1.23,1.23,0,0,1,90.93,100.93Z"/><path class="cls-4" d="M87,94.8c.36,0,1,.71,2.31,2.31a7.07,7.07,0,0,0,1.81,1.82c.59.35.94.64.94.79a1.68,1.68,0,0,1-.7.84,1,1,0,0,1-.47.12,1.7,1.7,0,0,1-.66-.16,3.43,3.43,0,0,1-1.46-1.24,30.16,30.16,0,0,1-2-2.92,2.08,2.08,0,0,1-.06-1.28c.06-.18.15-.28.29-.28m0-.5a.79.79,0,0,0-.76.61,2.62,2.62,0,0,0,.08,1.66,29.13,29.13,0,0,0,2,3,4,4,0,0,0,1.67,1.4,2.31,2.31,0,0,0,.85.19,1.5,1.5,0,0,0,.71-.18,2,2,0,0,0,1-1.28c0-.31-.21-.64-1.19-1.22a6.94,6.94,0,0,1-1.67-1.7c-1.5-1.91-2.13-2.5-2.7-2.5Z"/><path class="cls-29" d="M92.78,99.2a1.81,1.81,0,0,1-.63-.12,8.24,8.24,0,0,1-2.05-1.77c-1.6-1.71-2-2.28-2.06-3.07,0-.38-.05-.59.31-.73a.69.69,0,0,1,.25,0c.46,0,1,.43,1.73,1.32a12.41,12.41,0,0,0,2.57,2.06l1,.68a.39.39,0,0,1,.2.23c0,.15,0,.28-.17.5a4.34,4.34,0,0,1-.46.62.78.78,0,0,1-.69.32Z"/><path class="cls-4" d="M88.6,93.72c.37,0,.9.41,1.53,1.22a12.09,12.09,0,0,0,2.63,2.12c.5.34,1,.64,1,.68s.12.09-.06.4a4,4,0,0,1-.42.57.57.57,0,0,1-.52.24h0a1.72,1.72,0,0,1-.53-.1,8.19,8.19,0,0,1-2-1.71c-1.55-1.65-1.93-2.21-2-2.92,0-.39,0-.41.15-.47a.41.41,0,0,1,.16,0m0-.5a1,1,0,0,0-.34.06c-.54.2-.5.6-.47,1,.09.91.58,1.57,2.13,3.22a7.43,7.43,0,0,0,2.13,1.83,2.11,2.11,0,0,0,.73.14h0a1,1,0,0,0,.9-.4,4,4,0,0,0,.49-.66.9.9,0,0,0,.2-.7.63.63,0,0,0-.32-.38l-1-.66a12.19,12.19,0,0,1-2.52-2c-.75-1-1.37-1.41-1.92-1.41Z"/><path class="cls-30" d="M61.75,91.35a2,2,0,0,1-1-.27,1.43,1.43,0,0,1-.87-1.16l0-.48L61,89.38a9,9,0,0,0,3.7-.95,2.22,2.22,0,0,1,.85-.25.5.5,0,0,1,.42.18.91.91,0,0,1,0,.79c-.14.53-.53.89-1.42,1.36a6.94,6.94,0,0,1-2,.73A3.87,3.87,0,0,1,61.75,91.35Z"/><path class="cls-4" d="M65.54,88.43c.28,0,.34.21.22.65s-.46.77-1.3,1.2a6.71,6.71,0,0,1-1.9.72,3.93,3.93,0,0,1-.81.1,1.75,1.75,0,0,1-.89-.24,1.23,1.23,0,0,1-.75-1h0v-.22l.9-.05a9.3,9.3,0,0,0,3.8-1,1.85,1.85,0,0,1,.74-.23m0-.5h0a2.2,2.2,0,0,0-1,.28,8.89,8.89,0,0,1-3.61.92l-.91.05-.49,0,0,.49v.23a1.67,1.67,0,0,0,1,1.38,2.24,2.24,0,0,0,1.14.3,3.79,3.79,0,0,0,.91-.12,6.84,6.84,0,0,0,2-.75c.82-.42,1.37-.83,1.56-1.52a1.15,1.15,0,0,0-.09-1,.74.74,0,0,0-.62-.28Z"/><path class="cls-31" d="M60.66,89.4a2.59,2.59,0,0,1-1-.15,1.57,1.57,0,0,1-.81-1.39l-.06-.76h6l.13.35a.69.69,0,0,1,0,.45c-.22.58-3.23,1.38-3.26,1.39A4.76,4.76,0,0,1,60.66,89.4Z"/><path class="cls-4" d="M64.65,87.35l.07.19a.48.48,0,0,1,0,.27A8.73,8.73,0,0,1,61.66,89a3.88,3.88,0,0,1-1,.11,2.27,2.27,0,0,1-.87-.12,1.35,1.35,0,0,1-.68-1.19h0l0-.49h5.58m.35-.5H58.53l0,.54,0,.49a1.84,1.84,0,0,0,.94,1.59,2.7,2.7,0,0,0,1.11.18,4.72,4.72,0,0,0,1.13-.12c.74-.2,3.19-.89,3.44-1.54a1,1,0,0,0,0-.63l-.07-.19L65,86.85Z"/><path class="cls-32" d="M78.28,94.28c-.51-.48-1.45-1.35-2.52-2.31-2-1.84-3.26-3-4.09-3.89l-1.09-1.17H70c-.37,0-1.12,0-1.67-.06a3,3,0,0,1-1.62-.34,4.55,4.55,0,0,1-1.31-1c-1.08-1.07-1.08-1.31-1.08-1.42,0-.3,0-.3,4.06-.3h3.32a3.75,3.75,0,0,1,2.35.94c.47.54.53,1.22.22,2.45-.12.45-.11.47-.07.56A46.43,46.43,0,0,0,78,90.66l.39.2.4,3.89Z"/><path class="cls-4" d="M71.71,84a2.85,2.85,0,0,1,1,.17,2.66,2.66,0,0,1,1.21.69c.4.46.45,1.09.15,2.22-.12.48-.13.56,0,.73a36.47,36.47,0,0,0,3.88,3l.26.14.32,3.08c-.51-.48-1.45-1.35-2.53-2.32h0c-2-1.84-3.24-3-4.07-3.87l-1.16-1.25H70c-.37,0-1.11,0-1.66-.06a2.81,2.81,0,0,1-1.52-.31,4.48,4.48,0,0,1-1.24-1c-.64-.62-1-1.08-1-1.24s1.72,0,3.81,0h3.32m0-.5H68.39c-4.31,0-4.31,0-4.31.55,0,.17,0,.46,1.15,1.6a5,5,0,0,0,1.38,1.06,3.22,3.22,0,0,0,1.72.36c.55,0,1.3.06,1.68.06h.46l1,1.1c.84.91,2,2,4.1,3.9,1,.93,2,1.82,2.52,2.32l1,.93L79,94.05,78.63,91l0-.27-.24-.13-.27-.13a41.87,41.87,0,0,1-3.65-2.86,2.61,2.61,0,0,1,.08-.36,2.82,2.82,0,0,0-.27-2.67,3.09,3.09,0,0,0-1.4-.83,3.42,3.42,0,0,0-1.14-.2Z"/><path class="cls-33" d="M64.3,97.26a1.69,1.69,0,0,1-.66-.13,1.15,1.15,0,0,1-.56-1,.57.57,0,0,1,.12-.44.37.37,0,0,1,.27-.1,12.91,12.91,0,0,0,2.15-.92A5.71,5.71,0,0,0,67,93.83l.91-.79A2.06,2.06,0,0,1,69,92.38a.48.48,0,0,1,.44.27c.38.7-.33,1.46-1.78,2.62A20.1,20.1,0,0,1,65.26,97a1.58,1.58,0,0,1-.94.3Z"/><path class="cls-4" d="M69,92.63a.23.23,0,0,1,.22.14c.26.47-.2,1.09-1.72,2.3a19.25,19.25,0,0,1-2.37,1.67,1.32,1.32,0,0,1-.81.27h0a1.62,1.62,0,0,1-.54-.1.93.93,0,0,1-.43-.79c0-.25,0-.29.14-.29a12.34,12.34,0,0,0,2.26-.94A5.89,5.89,0,0,0,67.12,94l.9-.79a2,2,0,0,1,1-.6m0-.5h0a2.22,2.22,0,0,0-1.32.72l-.9.79a5.49,5.49,0,0,1-1.28.8,15.07,15.07,0,0,1-2.08.89h0a.58.58,0,0,0-.4.17.81.81,0,0,0-.19.62,1.43,1.43,0,0,0,.69,1.23,1.94,1.94,0,0,0,.78.16h0a1.84,1.84,0,0,0,1.09-.33,20.42,20.42,0,0,0,2.44-1.72c1.31-1,2.35-2,1.84-2.93a.72.72,0,0,0-.66-.4Z"/><path class="cls-34" d="M61.05,86.77c-2.89,0-3,0-3.79-.51-.6-.39-1.89-1.55-1.89-2s0-.34,4.29-.34h4.2l.28.53a8.43,8.43,0,0,0,1.56,1.69l.84.63Z"/><path class="cls-4" d="M59.59,84.16h4.12l.21.39a8.26,8.26,0,0,0,1.63,1.78h0l.25.18H61c-3,0-3,0-3.69-.51s-1.72-1.49-1.72-1.76c0-.08.68-.09,4-.09m.07-.5h-.07c-4.47,0-4.47,0-4.47.59s1.5,1.89,2,2.18l0,0c.81.52,1,.55,3.91.55h6.26l-1.19-.9-.25-.18a8.26,8.26,0,0,1-1.49-1.61l-.2-.4L64,83.66H59.66Z"/><path class="cls-35" d="M72.1,103.44a1,1,0,0,1-.84-.28c-.33-.29-.33-.38-.33-.45s0-.14.8-1a12.39,12.39,0,0,0,.89-1.1c.09-.18.3-.52.46-.78a14.08,14.08,0,0,0,.68-1.39c.63-1.44.81-1.78,1.62-1.78a.69.69,0,0,1,.52.18c.18.2.19.51.16,1a7,7,0,0,1-.84,2.67,6,6,0,0,1-2.11,2.77,1.75,1.75,0,0,1-.94.2Z"/><path class="cls-4" d="M75.38,96.87c.4,0,.48.18.43.91a6.92,6.92,0,0,1-.81,2.58A5.78,5.78,0,0,1,73,103a1.49,1.49,0,0,1-.82.17h-.08c-.39,0-.45,0-.66-.21a1,1,0,0,1-.25-.27s.33-.42.74-.88a11.36,11.36,0,0,0,.91-1.14h0l.46-.76A14.9,14.9,0,0,0,74,98.5c.65-1.49.78-1.63,1.39-1.63m0-.5c-1,0-1.23.53-1.85,1.93a12.26,12.26,0,0,1-.67,1.36l-.46.79c-.07.1-.43.57-.86,1-.86,1-.86,1-.86,1.21s.11.37.42.64a1.2,1.2,0,0,0,1,.34h.09a1.94,1.94,0,0,0,1-.23c.75-.39,1.39-1.22,2.22-2.88a7.29,7.29,0,0,0,.87-2.77,1.54,1.54,0,0,0-.23-1.18.92.92,0,0,0-.7-.26Z"/><path class="cls-36" d="M74.76,104.69a2.23,2.23,0,0,1-.6-.08c-.35-.1-.87-.49-.87-.83,0-.06,0-.23.54-.76a6.52,6.52,0,0,0,.63-.72,13.72,13.72,0,0,0,1.41-3.36A1.92,1.92,0,0,1,77,97.42l.22,0c.23,0,.77.1.77,1.08a12.94,12.94,0,0,1-.68,3.43c-.65,1.7-1,2.31-1.72,2.63A2.11,2.11,0,0,1,74.76,104.69Z"/><path class="cls-4" d="M77.19,97.65c.34,0,.52.29.52.83a12.37,12.37,0,0,1-.67,3.34c-.61,1.63-1,2.21-1.59,2.49a1.77,1.77,0,0,1-.69.13,1.79,1.79,0,0,1-.53-.07c-.3-.08-.69-.42-.69-.59a2,2,0,0,1,.46-.58,8.9,8.9,0,0,0,.67-.76,13.11,13.11,0,0,0,1.44-3.5A1.7,1.7,0,0,1,77,97.67a.44.44,0,0,1,.16,0m0-.5a1.24,1.24,0,0,0-.27,0,2.14,2.14,0,0,0-1.31,1.76,13.82,13.82,0,0,1-1.35,3.21,6.83,6.83,0,0,1-.61.69c-.61.61-.61.82-.61.94,0,.52.68,1,1,1.07a2.36,2.36,0,0,0,.67.09,2.06,2.06,0,0,0,.9-.18c.83-.38,1.26-1.19,1.85-2.76a12.85,12.85,0,0,0,.7-3.52c0-1-.53-1.33-1-1.33Z"/><path class="cls-37" d="M63.15,95.31a1.33,1.33,0,0,1-.9-.19A1.61,1.61,0,0,1,61.77,94c.06-.36.33-.39.73-.43a7,7,0,0,0,3.18-1.39c1.52-1,1.75-1.17,2.07-1.17a.54.54,0,0,1,.5.27c.18.36-.11.87-.38,1.24a11.57,11.57,0,0,1-3.21,2.38A2.5,2.5,0,0,1,63.15,95.31Z"/><path class="cls-4" d="M67.75,91.24c.43,0,.4.46-.09,1.12a11.18,11.18,0,0,1-3.11,2.29,2.25,2.25,0,0,1-1.4.41c-.46,0-.6,0-.74-.14h0A1.34,1.34,0,0,1,62,94c0-.15.07-.17.51-.22a7,7,0,0,0,3.29-1.43c1.48-1,1.7-1.12,1.93-1.12m0-.5c-.4,0-.67.17-2.21,1.21a6.66,6.66,0,0,1-3.06,1.35c-.43,0-.88.09-.95.64a1.8,1.8,0,0,0,.57,1.38,1.52,1.52,0,0,0,1,.24,2.67,2.67,0,0,0,1.62-.46,11.87,11.87,0,0,0,3.3-2.45c.45-.62.59-1.12.4-1.5a.76.76,0,0,0-.72-.41Z"/><path class="cls-38" d="M78.44,98.23c-.35,0-.46-.27-.71-.87a.5.5,0,0,0-.1-.17s-.12.06-.27.12l-.49.21-.34-.22a2,2,0,0,1-.47-.44.87.87,0,0,0-.86-.43c-.54,0-.66-.06-.87-.4s-.26-.4-.71-.46a1.81,1.81,0,0,1-.84-.27,1.93,1.93,0,0,1-.27-.59l-.06-.23-.4-.06a2.69,2.69,0,0,1-.72-.15c-.13-.08-.19-.26-.19-.55a2,2,0,0,0,0-.35H71c-.61,0-1-.1-1.19-.62a3.57,3.57,0,0,1-.18-.47l-.26,0a1.68,1.68,0,0,1-.71-.19,1.15,1.15,0,0,1-.24-.68c-.07-.7-.07-.7-.53-.77l-.51-.07-.12-1-.1,0c-.68-.14-.81-.29-.78-.94V88.3l-.29-.14c-.5-.25-.69-.4-.75-.59l0-.1.07-.17c.1-.16.12-.2,2.39-.2h2.51l4.08,3.73c4.09,3.74,4.09,3.74,4.09,4.09,0,.1.1.62.25,1.26.35,1.55.26,1.8.12,1.93A.53.53,0,0,1,78.44,98.23Z"/><path class="cls-4" d="M67.76,87.35h2.41l4,3.66c3.83,3.5,4,3.67,4,3.91s.12.72.25,1.3c.23,1,.3,1.6.2,1.7a.34.34,0,0,1-.2,0c-.16,0-.22-.09-.48-.71a.53.53,0,0,0-.21-.3h0a1.46,1.46,0,0,0-.44.12l-.38.16-.23-.15a1.6,1.6,0,0,1-.4-.38,1.11,1.11,0,0,0-1.05-.53c-.5,0-.52-.05-.67-.28-.32-.51-.31-.5-.91-.58a1.88,1.88,0,0,1-.67-.19,1.69,1.69,0,0,1-.21-.49l-.11-.38-.56-.08a3.16,3.16,0,0,1-.62-.13s-.07-.17-.07-.33c0-.54,0-.6-.41-.6-.6,0-.8-.1-1-.47a2.34,2.34,0,0,1-.16-.47c0-.12-.09-.14-.48-.17a1.52,1.52,0,0,1-.57-.13,1.06,1.06,0,0,1-.15-.52c-.09-.85-.13-.9-.75-1l-.32,0-.06-.5-.06-.49-.27-.06c-.56-.11-.6-.16-.58-.67l0-.46-.44-.22c-.49-.24-.67-.39-.61-.5a11.79,11.79,0,0,1,2.18-.08m0-.5c-2.41,0-2.43,0-2.6.31a.63.63,0,0,0-.07.48c.09.3.38.5.88.74l.15.07v.13c0,.74.17,1,.9,1.18l0,.13,0,.5,0,.39.38,0,.33,0,.24,0a3.92,3.92,0,0,1,.07.51c.07.63.27.79.33.85a1.76,1.76,0,0,0,.85.23h.09c.06.16.13.32.14.34a1.28,1.28,0,0,0,1.33.77v.1c0,.57.22.71.3.76a2.06,2.06,0,0,0,.82.19l.24,0,0,.07a2.16,2.16,0,0,0,.33.7c.06.06.22.22,1,.33a3.08,3.08,0,0,1,.37.07s.1.14.18.27c.29.45.52.49,1.07.53s.48.06.67.33a2.33,2.33,0,0,0,.54.5l.23.15.22.14.24-.1.38-.16.07,0c.24.58.41,1,.91,1a.77.77,0,0,0,.56-.2c.24-.24.28-.61-.07-2.16-.14-.6-.23-1.11-.24-1.21,0-.45,0-.45-4.17-4.26l-4-3.66-.14-.13H67.76Z"/><path class="cls-39" d="M62,93.41a1.23,1.23,0,0,1-.86-.26,1.63,1.63,0,0,1-.59-1,.41.41,0,0,1,.05-.38.36.36,0,0,1,.29-.12c.07,0,.56-.08,1.27-.21a5.93,5.93,0,0,0,2.31-.78A10,10,0,0,1,66,89.86a1.51,1.51,0,0,1,.56-.16c.44,0,.47.46.48.64,0,.43-.06.51-.57,1a9.31,9.31,0,0,1-.92.74A13,13,0,0,1,63,93.32a4.93,4.93,0,0,1-.88.1Z"/><path class="cls-4" d="M66.56,90c.16,0,.21.12.23.4s0,.32-.49.78a8.81,8.81,0,0,1-.89.72,12.15,12.15,0,0,1-2.51,1.22,3.61,3.61,0,0,1-.82.1H62a1,1,0,0,1-.72-.22,1.38,1.38,0,0,1-.5-.88c0-.17,0-.2.1-.2s.67-.1,1.31-.22a6.07,6.07,0,0,0,2.41-.81,10,10,0,0,1,1.5-.75,1.38,1.38,0,0,1,.46-.14m0-.5h0a1.56,1.56,0,0,0-.66.19,8.18,8.18,0,0,0-1.58.79,5.67,5.67,0,0,1-2.22.73l-1.24.21h0a.59.59,0,0,0-.47.21.68.68,0,0,0-.1.59A1.9,1.9,0,0,0,61,93.35a1.47,1.47,0,0,0,1,.31h.09a4.66,4.66,0,0,0,.94-.11,13.52,13.52,0,0,0,2.67-1.29,10.09,10.09,0,0,0,1-.77c.51-.47.69-.63.65-1.18-.05-.76-.48-.87-.73-.87Z"/><path class="cls-40" d="M77.59,105.43H77.4a3.45,3.45,0,0,1-1.38-.36c-.32-.27-.16-.47.34-1.13a11.17,11.17,0,0,0,.7-1,15.36,15.36,0,0,0,.82-2.71,3.52,3.52,0,0,1,.27-1.2.63.63,0,0,1,.54-.42.45.45,0,0,1,.41.26,39.19,39.19,0,0,1,.11,4.87,1.66,1.66,0,0,1-1,1.55A1.41,1.41,0,0,1,77.59,105.43Z"/><path class="cls-4" d="M78.69,98.81a.2.2,0,0,1,.19.13,43.77,43.77,0,0,1,.08,4.73,1.42,1.42,0,0,1-.83,1.35,1.11,1.11,0,0,1-.54.16h-.16a3.61,3.61,0,0,1-1.25-.3c-.13-.11-.11-.14.38-.79a10,10,0,0,0,.72-1.08,14.53,14.53,0,0,0,.85-2.81,3.43,3.43,0,0,1,.25-1.11h0c.08-.18.2-.27.31-.27m0-.5a.84.84,0,0,0-.76.57,3.61,3.61,0,0,0-.3,1.3,16,16,0,0,1-.79,2.59c-.1.17-.4.63-.68,1-.5.66-.8,1-.3,1.47.09.07.32.27,1.51.42h.22a1.54,1.54,0,0,0,.76-.22,1.88,1.88,0,0,0,1.11-1.74,35.55,35.55,0,0,0-.14-5,.69.69,0,0,0-.63-.4Z"/><path class="cls-41" d="M46.48,91.7l-.86-.28a6.58,6.58,0,0,1-1.22-.55,1.8,1.8,0,0,1-.77-1.08c0-.33,0-.33,7.89-.33H59.3l.24.42a8,8,0,0,1,.57,1.54c0,.28,0,.28-6.94.28Z"/><path class="cls-4" d="M59.15,89.71l.18.3a8.72,8.72,0,0,1,.53,1.41s-3,0-6.69,0H46.48l-.78-.27a6,6,0,0,1-1.16-.52,1.69,1.69,0,0,1-.66-.87c0-.06,2.07-.08,7.64-.08h7.63m.29-.5H51.52l-5.92,0c-2.06,0-2.22,0-2.22.56a2,2,0,0,0,.88,1.28,6.12,6.12,0,0,0,1.28.58l.78.27.08,0H59.33c.64,0,1,0,1-.51a7.72,7.72,0,0,0-.6-1.66l-.17-.3-.15-.25Z"/><path class="cls-42" d="M54.94,94.2a65.85,65.85,0,0,1-6.77-.11,7.45,7.45,0,0,1-2.49-1.24,1.54,1.54,0,0,1-.21-.45l-.11-.5H60.12l.29.39a4.79,4.79,0,0,1,.38.63,1.08,1.08,0,0,0,.28.34.64.64,0,0,1,.36.52v.42Z"/><path class="cls-4" d="M60,92.15h0l.22.29a3.65,3.65,0,0,1,.35.59,1.27,1.27,0,0,0,.38.44c.16.1.24.2.24.31V94H54.94c-5.14,0-6.32,0-6.72-.1a7.62,7.62,0,0,1-2.34-1.15,1.31,1.31,0,0,1-.17-.36l0-.19H60m.25-.5H45.05l.13.6,0,.19a1.86,1.86,0,0,0,.26.55,7.42,7.42,0,0,0,2.64,1.35,66.23,66.23,0,0,0,6.82.11h6.74v-.67A.87.87,0,0,0,61.2,93a.71.71,0,0,1-.18-.22,4.3,4.3,0,0,0-.41-.67l-.21-.3-.15-.2Z"/><path class="cls-43" d="M50.34,86.68c-6,0-6.36,0-6.75-.16C42.31,86.1,41,85.15,41,84.3v-.39H54.38l.52.54c.26.26.55.59.67.73a6.62,6.62,0,0,0,1,.91l.79.6Z"/><path class="cls-4" d="M54.27,84.16l.45.46c.25.26.54.58.65.72a7.63,7.63,0,0,0,1.05,1l.21.15H50.34c-5.89,0-6.32,0-6.67-.15-1.32-.43-2.43-1.34-2.43-2v-.14h13m.21-.5H40.74v.64c0,1,1.43,2,2.77,2.46.44.15.69.15,6.83.17h7.77l-1.18-.9-.2-.16a6.28,6.28,0,0,1-1-.86c-.14-.17-.45-.5-.69-.75l-.45-.47-.15-.15Z"/><path class="cls-44" d="M57.15,96.63c-4.82,0-5.65,0-5.83-.08a6.3,6.3,0,0,1-2.19-1.11c-.85-.6-.85-.62-.85-.76s0-.28,6.46-.28h6.65l.72.77c.6.65.71.86.71,1v.42Z"/><path class="cls-4" d="M54.66,94.65h6.62l.64.69c.46.49.65.75.65.87h0v.17H57.15c-3.66,0-5.53,0-5.78-.07a6.45,6.45,0,0,1-2.1-1.07,7.55,7.55,0,0,1-.74-.56s2.74,0,6.13,0m0-.5H49c-.57,0-1,0-1,.51,0,.29.11.37,1,1a6.69,6.69,0,0,0,2.27,1.15c.22,0,1.09.08,5.89.08h5.92v-.67c0-.29-.18-.56-.78-1.21l-.64-.69-.15-.16H54.66Z"/><path class="cls-45" d="M44.88,89.37l-.59-.2a5.45,5.45,0,0,1-.94-.44c-.29-.17-1.18-.94-1.18-1.29s0-.33,4.41-.33l11.52,0,.5.93c.46.84.46,1,.46,1,0,.33,0,.33-3.84.33Z"/><path class="cls-4" d="M46.57,87.36h3.62l7.76,0,.43.8a5.8,5.8,0,0,1,.43.88,22.37,22.37,0,0,1-3.56.08h-3.4l-7,0-.5-.18a6.32,6.32,0,0,1-.9-.42,3.28,3.28,0,0,1-1.06-1.08,29.87,29.87,0,0,1,4.15-.08m0-.5c-4.65,0-4.65,0-4.65.58s1.17,1.43,1.3,1.51a7.66,7.66,0,0,0,1,.46l.5.18.08,0h.09l7,0h3.4c4.06,0,4.06,0,4.06-.58,0-.09,0-.22-.5-1.13l-.42-.79-.15-.26H58l-7.76,0Z"/><path class="cls-46" d="M63.41,99.76c-1.59,0-4-.08-5.28-.22a14.14,14.14,0,0,1-3.84-1,6.82,6.82,0,0,1-1.87-1.09l-.61-.63H63.17l.38.25A4.52,4.52,0,0,1,65,98.72a2.4,2.4,0,0,1,.27.7C65.25,99.71,65.11,99.76,63.41,99.76Z"/><path class="cls-4" d="M63.1,97.08l.31.21a4.26,4.26,0,0,1,1.35,1.54,3.29,3.29,0,0,1,.24.59,6.12,6.12,0,0,1-1.59.09c-1.6,0-4-.08-5.26-.21a14.12,14.12,0,0,1-3.77-1,6.68,6.68,0,0,1-1.78-1l-.21-.21H63.1m.15-.5h-12l.8.84.2.21a7,7,0,0,0,2,1.15,14.24,14.24,0,0,0,3.9,1c1.29.14,3.72.22,5.31.22s2.09,0,2.09-.59c0-.08,0-.2-.29-.81a4.81,4.81,0,0,0-1.52-1.74l-.32-.21-.12-.08Z"/><path class="cls-47" d="M70.38,102.22c-.69,0-1.53-.44-1.53-1,0-.1,0-.24,1-1.26a6.14,6.14,0,0,0,1.59-2,7,7,0,0,1,1.37-2,1.21,1.21,0,0,1,.63-.21.53.53,0,0,1,.5.26,2,2,0,0,1,0,1.37,5.82,5.82,0,0,1-.83,1.88,12.54,12.54,0,0,1-1.39,2.14c-.4.49-.54.61-.94.73A1.46,1.46,0,0,1,70.38,102.22Z"/><path class="cls-4" d="M73.47,96a.3.3,0,0,1,.28.13,1.85,1.85,0,0,1-.07,1.19,5.7,5.7,0,0,1-.8,1.81,13,13,0,0,1-1.37,2.11c-.4.48-.49.56-.82.65a1,1,0,0,1-.31,0c-.58,0-1.28-.36-1.28-.74a5.49,5.49,0,0,1,1-1.08,6.59,6.59,0,0,0,1.64-2.09A6.54,6.54,0,0,1,73,96.21a.83.83,0,0,1,.49-.17m0-.5h0a1.41,1.41,0,0,0-.77.25,7.14,7.14,0,0,0-1.45,2,5.94,5.94,0,0,1-1.55,2c-1.1,1.1-1.1,1.25-1.1,1.44,0,.77,1,1.24,1.78,1.24a1.63,1.63,0,0,0,.45-.06,1.88,1.88,0,0,0,1.06-.81,13.2,13.2,0,0,0,1.42-2.18,6.13,6.13,0,0,0,.85-1.93,2.17,2.17,0,0,0,0-1.56.8.8,0,0,0-.72-.39Z"/><path class="cls-48" d="M68,100.93a1.23,1.23,0,0,1-.59-.15,1.82,1.82,0,0,1-.83-1.06c0-.12,0-.38,1.07-1A7.46,7.46,0,0,0,69.36,97c1.58-2,2.1-2.41,2.5-2.41a.55.55,0,0,1,.52.44,2.42,2.42,0,0,1-.06,1.48,33.76,33.76,0,0,1-2,3,3.65,3.65,0,0,1-1.57,1.32A1.81,1.81,0,0,1,68,100.93Z"/><path class="cls-4" d="M71.86,94.8c.13,0,.23.1.29.28a2.08,2.08,0,0,1-.06,1.28,32.12,32.12,0,0,1-2,2.92,3.43,3.43,0,0,1-1.46,1.24,1.7,1.7,0,0,1-.66.16,1,1,0,0,1-.47-.12,1.68,1.68,0,0,1-.7-.84c0-.15.35-.44.94-.79h0a7.4,7.4,0,0,0,1.81-1.82c1.26-1.6,1.94-2.31,2.31-2.31m0-.5h0c-.57,0-1.2.59-2.7,2.5a6.94,6.94,0,0,1-1.67,1.7c-1,.58-1.19.91-1.19,1.22a2,2,0,0,0,1,1.28,1.5,1.5,0,0,0,.71.18,2.31,2.31,0,0,0,.85-.19,4,4,0,0,0,1.67-1.4,30.83,30.83,0,0,0,2.05-3,2.62,2.62,0,0,0,.08-1.66.79.79,0,0,0-.76-.61Z"/><path class="cls-49" d="M66.09,99.2a.78.78,0,0,1-.69-.32,4.34,4.34,0,0,1-.46-.62c-.13-.22-.21-.35-.17-.5a.39.39,0,0,1,.2-.23l1-.67a12.41,12.41,0,0,0,2.57-2.07c.7-.89,1.27-1.32,1.73-1.32a.69.69,0,0,1,.25,0c.36.14.34.35.31.73-.07.79-.46,1.36-2.06,3.07a8.24,8.24,0,0,1-2,1.77,1.81,1.81,0,0,1-.63.12Z"/><path class="cls-4" d="M70.3,93.72a.41.41,0,0,1,.16,0c.18.06.18.08.15.47-.07.71-.45,1.27-2,2.92a8.19,8.19,0,0,1-2,1.71,1.67,1.67,0,0,1-.53.1h0a.57.57,0,0,1-.52-.24,4,4,0,0,1-.42-.57c-.18-.31-.18-.33-.06-.4s.54-.34,1-.68a12.09,12.09,0,0,0,2.63-2.12c.63-.81,1.16-1.22,1.53-1.22m0-.5h0c-.55,0-1.17.45-1.92,1.41a11.91,11.91,0,0,1-2.52,2l-1,.66a.63.63,0,0,0-.32.38.9.9,0,0,0,.2.7,4.65,4.65,0,0,0,.48.66,1.06,1.06,0,0,0,.89.4,2.13,2.13,0,0,0,.75-.14A7.43,7.43,0,0,0,69,97.48c1.55-1.65,2-2.31,2.13-3.22,0-.38.07-.78-.47-1a1,1,0,0,0-.34-.06Z"/><polygon class="cls-4" points="78.7 50 80.82 54.3 85.57 54.99 82.13 58.34 82.94 63.06 78.7 60.83 74.45 63.06 75.26 58.34 71.83 54.99 76.58 54.3 78.7 50"/></g></g></svg>